<svg id="Слой_1" data-name="Слой 1" xmlns="http://www.w3.org/2000/svg" width="126" height="45" viewBox="0 0 126 45"><defs><style>.cls-1{fill:#fff;}.cls-2{fill:#585551;}.cls-3{fill:#7f7d7c;}.cls-4{fill:#c8c7c7;}.cls-5{fill:#afaeae;}.cls-6{fill:#e2e2e2;}.cls-7{fill:#969594;}</style></defs><title>3_coupe_grey_outline</title><polygon class="cls-1" points="121 36 19 36 3 33 2 31 3 25 3 16 21 13 37 3 40 2 67 2 92 14 117 17 121 19 123 22 124 26 124 33 121 36"/><path class="cls-2" d="M67,2L92,14l25,3,4,2,2,3,1,4v7l-3,3H19L3,33,2,31l1-6V16l18-3L37,3l3-1H67m0-2H40a2,2,0,0,0-.63.1l-3,1a2,2,0,0,0-.43.2L20.28,11.09,2.67,14A2,2,0,0,0,1,16v8.83L0,30.67a2,2,0,0,0,.18,1.22l1,2A2,2,0,0,0,2.63,35l16,3A2,2,0,0,0,19,38H121a2,2,0,0,0,1.41-.59l3-3A2,2,0,0,0,126,33V26a2,2,0,0,0-.06-0.49l-1-4a2,2,0,0,0-.28-0.62l-2-3a2,2,0,0,0-.77-0.68l-4-2a2,2,0,0,0-.66-0.2l-24.67-3L67.87,0.2A2,2,0,0,0,67,0h0Z" transform="translate(0)"/><path class="cls-3" d="M39.81,37a11,11,0,1,0-21.62,0H39.81Z" transform="translate(0)"/><path class="cls-2" d="M29,24A11,11,0,0,1,39.81,37H18.19A11,11,0,0,1,29,24m0-1A12,12,0,0,0,17,35a11.89,11.89,0,0,0,.21,2.18,1,1,0,0,0,1,.82H39.81a1,1,0,0,0,1-.82A12,12,0,0,0,29,23h0Z" transform="translate(0)"/><circle class="cls-4" cx="29" cy="35" r="8"/><path class="cls-2" d="M29,27a8,8,0,1,1-8,8,8,8,0,0,1,8-8m0-2A10,10,0,1,0,39,35,10,10,0,0,0,29,25h0Z" transform="translate(0)"/><circle class="cls-1" cx="29" cy="35" r="4"/><path class="cls-2" d="M29,31a4,4,0,1,1-4,4,4,4,0,0,1,4-4m0-1a5,5,0,1,0,5,5,5,5,0,0,0-5-5h0Z" transform="translate(0)"/><circle class="cls-3" cx="29" cy="35" r="1"/><path class="cls-5" d="M29,34a1,1,0,1,1-1,1,1,1,0,0,1,1-1m0-1a2,2,0,1,0,2,2,2,2,0,0,0-2-2h0Z" transform="translate(0)"/><path class="cls-3" d="M113.81,37a11,11,0,1,0-21.62,0h21.62Z" transform="translate(0)"/><path class="cls-2" d="M103,24a11,11,0,0,1,10.81,13H92.19A11,11,0,0,1,103,24m0-1A12,12,0,0,0,91,35a11.89,11.89,0,0,0,.21,2.18,1,1,0,0,0,1,.82h21.62a1,1,0,0,0,1-.82A12,12,0,0,0,103,23h0Z" transform="translate(0)"/><circle class="cls-4" cx="103" cy="35" r="8"/><path class="cls-2" d="M103,27a8,8,0,1,1-8,8,8,8,0,0,1,8-8m0-2a10,10,0,1,0,10,10,10,10,0,0,0-10-10h0Z" transform="translate(0)"/><circle class="cls-1" cx="103" cy="35" r="4"/><path class="cls-2" d="M103,31a4,4,0,1,1-4,4,4,4,0,0,1,4-4m0-1a5,5,0,1,0,5,5,5,5,0,0,0-5-5h0Z" transform="translate(0)"/><circle class="cls-3" cx="103" cy="35" r="1"/><path class="cls-5" d="M103,34a1,1,0,1,1-1,1,1,1,0,0,1,1-1m0-1a2,2,0,1,0,2,2,2,2,0,0,0-2-2h0Z" transform="translate(0)"/><polygon class="cls-6" points="115 20 115 22 121 25 124 25 123 22 122 20 115 20"/><path class="cls-2" d="M122,20l1,2,1,3h-3l-6-3V20h7m0-1h-7a1,1,0,0,0-1,1v2a1,1,0,0,0,.55.89l6,3A1,1,0,0,0,121,26h3a1,1,0,0,0,.95-1.32l-1-3-0.05-.13-1-2A1,1,0,0,0,122,19h0Z" transform="translate(0)"/><polygon class="cls-6" points="3 19 9 19 9 21 7 23 3 24 3 19"/><path class="cls-2" d="M9,19v2L7,23,3,24V19H9m0-1H3a1,1,0,0,0-1,1v5a1,1,0,0,0,1.24,1l4-1a1,1,0,0,0,.46-0.26l2-2A1,1,0,0,0,10,21V19a1,1,0,0,0-1-1H9Z" transform="translate(0)"/><rect class="cls-2" x="47" y="2" width="1" height="34"/><polygon class="cls-5" points="51 13 51 5 66 5 81 12 81 13 51 13"/><path class="cls-2" d="M66,5l15,7v1H51V5H66m0-1H51a1,1,0,0,0-1,1v8a1,1,0,0,0,1,1H81a1,1,0,0,0,1-1V12a1,1,0,0,0-.58-0.91l-15-7A1,1,0,0,0,66,4h0Z" transform="translate(0)"/><polygon class="cls-1" points="78 10 80 10 81 12 81 14 78 14 78 10"/><path class="cls-2" d="M80,10l1,2v2H78V10h2m0-1H78a1,1,0,0,0-1,1v4a1,1,0,0,0,1,1h3a1,1,0,0,0,1-1V12a1,1,0,0,0-.11-0.45l-1-2A1,1,0,0,0,80,9h0Z" transform="translate(0)"/><polygon class="cls-5" points="44 13 44 5 41 5 39 6 32 12 32 13 44 13"/><path class="cls-2" d="M44,5v8H32V12l7-6,2-1h3m0-1H41a1,1,0,0,0-.45.11l-2,1a1,1,0,0,0-.2.14l-7,6A1,1,0,0,0,31,12v1a1,1,0,0,0,1,1H44a1,1,0,0,0,1-1V5a1,1,0,0,0-1-1h0Z" transform="translate(0)"/><rect class="cls-2" x="88" y="16" width="1" height="11"/><polygon class="cls-2" points="89 16 88 16 86 11 87 11 89 16"/><polygon class="cls-2" points="87 36 86 36 88 27 89 27 87 36"/><rect class="cls-7" x="51" y="17" width="3" height="1"/><path class="cls-2" d="M54,17v1H51V17h3m0-1H51a1,1,0,0,0-1,1v1a1,1,0,0,0,1,1h3a1,1,0,0,0,1-1V17a1,1,0,0,0-1-1h0Z" transform="translate(0)"/></svg>