<svg id="Слой_1" data-name="Слой 1" xmlns="http://www.w3.org/2000/svg" width="126" height="45" viewBox="0 0 126 45"><defs><style>.cls-1{fill:#2ecc71;}.cls-2{fill:#a1daf8;}.cls-3{fill:#fff;}.cls-4{fill:#345f41;}.cls-5{fill:#ffcd02;}.cls-6{fill:#d95459;}.cls-7{fill:#ecf0f1;}.cls-8{fill:#2d5036;}.cls-9{fill:#bdc3c7;}.cls-10{fill:#636363;}.cls-11{fill:#f0deb4;}.cls-12{fill:#7f8c8d;}</style></defs><title>3_coupe_green</title><polygon class="cls-1" points="121 36 19 36 3 33 2 31 3 25 3 16 21 13 37 3 40 2 67 2 92 14 117 17 121 19 123 22 124 26 124 33 121 36"/><polygon class="cls-2" points="51 13 51 5 66 5 81 12 81 13 51 13"/><polygon class="cls-2" points="44 13 44 5 41 5 39 6 32 12 32 13 44 13"/><polygon class="cls-3" points="55 12 61 6 64 6 58 12 55 12"/><polygon class="cls-3" points="65.68 6.32 60 12 62 12 67.05 6.95 65.68 6.32"/><polygon class="cls-3" points="39 12 43 8 43 6 42 6 36 12 39 12"/><path class="cls-4" d="M66.47,2l25,12,25,3,4,2,2,3,1,4v7l-3,3h-102l-16-3-1-2,1-6V16l18-3,16-10,3-1h27m0-2h-27l-4,1L19.94,11,2.34,14A2,2,0,0,0,.47,16v8.84l-1,5.84a2,2,0,0,0,.18,1.22l1,2A2,2,0,0,0,2.1,35l16,3a2,2,0,0,0,.37,0h102a2,2,0,0,0,1.41-.59l3-3a2,2,0,0,0,.59-1.41V26a2,2,0,0,0-.06-0.49l-1-4a2,2,0,0,0-.28-0.62l-2-3a2,2,0,0,0-.77-0.68l-4-2a2,2,0,0,0-.66-0.2L92,12.05,67.34,0.2A2,2,0,0,0,66.47,0h0Z" transform="translate(0.53)"/><path class="cls-4" d="M121.47,20l1,2,1,3h-3l-6-3V20h7m0-1h-7a1,1,0,0,0-1,1v2a1,1,0,0,0,.55.89l6,3a1,1,0,0,0,.45.11h3a1,1,0,0,0,.95-1.32l-1-3-0.05-.13-1-2a1,1,0,0,0-.89-0.55h0Z" transform="translate(0.53)"/><path class="cls-4" d="M8.47,19v2l-2,2-4,1V19h6m0-1h-6a1,1,0,0,0-1,1v5a1,1,0,0,0,1,1l4-1a1,1,0,0,0,.71-0.29l2-2A1,1,0,0,0,9.47,21V19a1,1,0,0,0-1-1h0Z" transform="translate(0.53)"/><rect class="cls-4" x="47" y="2" width="1" height="34"/><path class="cls-4" d="M65.47,5l15,7v1h-30V5h15m0-1h-15a1,1,0,0,0-1,1v8a1,1,0,0,0,1,1h30a1,1,0,0,0,1-1V12a1,1,0,0,0-.58-0.91l-15-7A1,1,0,0,0,65.47,4h0Z" transform="translate(0.53)"/><path class="cls-4" d="M79.47,10l1,2v2h-3V10h2m0-1h-2a1,1,0,0,0-1,1v4a1,1,0,0,0,1,1h3a1,1,0,0,0,1-1V12a1,1,0,0,0-.11-0.45l-1-2A1,1,0,0,0,79.47,9h0Z" transform="translate(0.53)"/><rect class="cls-4" x="88" y="16" width="1" height="11"/><polygon class="cls-4" points="89 16 88 16 86 11 87 11 89 16"/><polygon class="cls-4" points="87 36 86 36 88 27 89 27 87 36"/><path class="cls-4" d="M53.47,17v1h-3V17h3m0-1h-3a1,1,0,0,0-1,1v1a1,1,0,0,0,1,1h3a1,1,0,0,0,1-1V17a1,1,0,0,0-1-1h0Z" transform="translate(0.53)"/><path class="cls-4" d="M43.47,5v8h-12V12l7-6,2-1h3m0-1h-3a1,1,0,0,0-.45.11l-2,1a1,1,0,0,0-.2.14l-7,6a1,1,0,0,0-.35.76v1a1,1,0,0,0,1,1h12a1,1,0,0,0,1-1V5a1,1,0,0,0-1-1h0Z" transform="translate(0.53)"/><polygon class="cls-5" points="115 20 115 22 121 25 124 25 123 22 122 20 115 20"/><polygon class="cls-6" points="3 19 9 19 9 21 7 23 3 24 3 19"/><polygon class="cls-7" points="78 10 80 10 81 12 81 14 78 14 78 10"/><rect class="cls-7" x="51" y="17" width="3" height="1"/><path class="cls-8" d="M28.47,23a12,12,0,0,0-12,12,11.89,11.89,0,0,0,.21,2.18,1,1,0,0,0,1,.82H39.28a1,1,0,0,0,1-.82A12,12,0,0,0,28.47,23Z" transform="translate(0.53)"/><path class="cls-8" d="M102.47,23a12,12,0,0,0-12,12,11.89,11.89,0,0,0,.21,2.18,1,1,0,0,0,1,.82h21.62a1,1,0,0,0,1-.82A12,12,0,0,0,102.47,23Z" transform="translate(0.53)"/><circle class="cls-9" cx="29" cy="35" r="8"/><path class="cls-10" d="M28.47,27a8,8,0,1,1-8,8,8,8,0,0,1,8-8m0-2a10,10,0,1,0,10,10,10,10,0,0,0-10-10h0Z" transform="translate(0.53)"/><circle class="cls-11" cx="29" cy="35" r="4"/><path class="cls-12" d="M28.47,31a4,4,0,1,1-4,4,4,4,0,0,1,4-4m0-1a5,5,0,1,0,5,5,5,5,0,0,0-5-5h0Z" transform="translate(0.53)"/><circle class="cls-9" cx="103" cy="35" r="8"/><path class="cls-10" d="M102.47,27a8,8,0,1,1-8,8,8,8,0,0,1,8-8m0-2a10,10,0,1,0,10,10,10,10,0,0,0-10-10h0Z" transform="translate(0.53)"/><circle class="cls-11" cx="103" cy="35" r="4"/><path class="cls-12" d="M102.47,31a4,4,0,1,1-4,4,4,4,0,0,1,4-4m0-1a5,5,0,1,0,5,5,5,5,0,0,0-5-5h0Z" transform="translate(0.53)"/></svg>