<svg id="Слой_1" data-name="Слой 1" xmlns="http://www.w3.org/2000/svg" width="127" height="51" viewBox="0 0 127 51"><defs><style>.cls-1{fill:#2ecc71;}.cls-2{fill:#d95459;}.cls-3{fill:#ffcd02;}.cls-4{fill:#a1daf8;}.cls-5{fill:#fff;}.cls-6{fill:#345f41;}.cls-7{fill:#ecf0f1;}.cls-8{fill:#2d5036;}.cls-9{fill:#bdc3c7;}.cls-10{fill:#636363;}.cls-11{fill:#f0deb4;}.cls-12{fill:#7f8c8d;}.cls-13{fill:#34495e;}</style></defs><title>2_hatchback_green</title><path class="cls-1" d="M10,41L2,38V31l2-2L5,18,17,6s3-4,11-4H64l4,2L88,15l3,1,16,2,11,3,5,4,2,5v5l-1,6H10Z"/><polygon class="cls-2" points="10 20 10 22 8 25 5 25 5 20 10 20"/><polygon class="cls-3" points="117 23 117 25 120 27 124 27 123 25 121 23 117 23"/><polygon class="cls-4" points="47 5 59 5 67 7 81 15 81 17 47 17 47 5"/><polygon class="cls-4" points="40 5 40 17 21 17 19 14 26 6 29 5 40 5"/><polygon class="cls-5" points="39 6 29 16 26 16 36 6 39 6"/><polygon class="cls-5" points="24 16 22 16 32 6 34 6 24 16"/><polygon class="cls-5" points="62.8 7.2 54 16 57 16 65.2 7.8 62.8 7.2"/><polygon class="cls-5" points="66.64 8.36 59 16 61 16 67.91 9.09 66.64 8.36"/><path class="cls-6" d="M59,2l9,2L88,15l3,1,16,2,11,3,5,4,2,5v5l-1,6H10L2,38V31l2-2L5,18,17,6s3-4,11-4H64M53,0H28C19.88,0,16.21,3.83,15.52,4.65L3.59,16.59A2,2,0,0,0,3,17.82L2.07,28.1,0.59,29.59A2,2,0,0,0,0,31v7a2,2,0,0,0,1.3,1.87l8,3A2,2,0,0,0,10,43H124a2,2,0,0,0,2-1.67l1-6a2,2,0,0,0,0-.33V30a2,2,0,0,0-.14-0.74l-2-5a2,2,0,0,0-.61-0.82l-5-4a2,2,0,0,0-.72-0.37l-11-3L107.25,16l-15.8-2-2.64-.88L69,2.25A2,2,0,0,0,68.43,2l-9-2A2,2,0,0,0,59,0H53Z"/><rect class="cls-6" x="43" y="2" width="1" height="39"/><path class="cls-6" d="M10,20v2L8,25H5V20h5m0-1H5a1,1,0,0,0-1,1v5a1,1,0,0,0,1,1H8a1,1,0,0,0,.83-0.45l2-3A1,1,0,0,0,11,22V20a1,1,0,0,0-1-1h0Z"/><path class="cls-6" d="M50,21v1H47V21h3m0-1H47a1,1,0,0,0-1,1v1a1,1,0,0,0,1,1h3a1,1,0,0,0,1-1V21a1,1,0,0,0-1-1h0Z"/><path class="cls-6" d="M59,5l8,2,14,8v2H47V5H59m0-1H47a1,1,0,0,0-1,1V17a1,1,0,0,0,1,1H81a1,1,0,0,0,1-1V15a1,1,0,0,0-.5-0.87l-14-8A1,1,0,0,0,67.24,6l-8-2A1,1,0,0,0,59,4h0Z"/><path class="cls-6" d="M82,14l1,2v2H80V14h2m0-1H80a1,1,0,0,0-1,1v4a1,1,0,0,0,1,1h3a1,1,0,0,0,1-1V16a1,1,0,0,0-.11-0.45l-1-2A1,1,0,0,0,82,13h0Z"/><path class="cls-6" d="M121,23l2,2,1,2h-4l-3-2V23h4m0-1h-4a1,1,0,0,0-1,1v2a1,1,0,0,0,.45.83l3,2A1,1,0,0,0,120,28h4a1,1,0,0,0,.89-1.45l-1-2a1,1,0,0,0-.19-0.26l-2-2A1,1,0,0,0,121,22h0Z"/><rect class="cls-6" x="86" y="13" width="1" height="15"/><polygon class="cls-6" points="84 41 83 41 86 28 87 28 84 41"/><path class="cls-6" d="M40,5V17H21l-2-3,7-8,3-1H40m0-1H29a1,1,0,0,0-.32.05l-3,1a1,1,0,0,0-.44.29l-7,8a1,1,0,0,0-.08,1.21l2,3A1,1,0,0,0,21,18H40a1,1,0,0,0,1-1V5a1,1,0,0,0-1-1h0Z"/><rect class="cls-7" x="47" y="21" width="3" height="1"/><polygon class="cls-7" points="80 14 82 14 83 16 83 18 80 18 80 14"/><path class="cls-8" d="M101,26A13.91,13.91,0,0,0,87.18,42.15a1,1,0,0,0,1,.85h25.66a1,1,0,0,0,1-.85A13.91,13.91,0,0,0,101,26Z"/><path class="cls-8" d="M23,26A13.91,13.91,0,0,0,9.18,42.15a1,1,0,0,0,1,.85H35.83a1,1,0,0,0,1-.85A13.91,13.91,0,0,0,23,26Z"/><circle class="cls-9" cx="101" cy="40" r="9"/><path class="cls-10" d="M101,31a9,9,0,1,1-9,9,9,9,0,0,1,9-9m0-2a11,11,0,1,0,11,11,11,11,0,0,0-11-11h0Z"/><circle class="cls-11" cx="101" cy="40" r="5"/><path class="cls-12" d="M101,35a5,5,0,1,1-5,5,5,5,0,0,1,5-5m0-1a6,6,0,1,0,6,6,6,6,0,0,0-6-6h0Z"/><path class="cls-13" d="M100.29,39.29l-2.12-2.12a4,4,0,0,1,1.57-1l0.95,2.84A1,1,0,0,0,100.29,39.29ZM100,40a1,1,0,0,1,.11-0.44l-2.68-1.34A4,4,0,0,0,97,40h3Zm2.78-3.56A4,4,0,0,0,101,36v3a1,1,0,0,1,.44.11Zm-0.84,3.25,2.84-.95a4,4,0,0,0-1-1.57l-2.12,2.12A1,1,0,0,1,101.94,39.69ZM102,40a1,1,0,0,1-.12.44l2.68,1.34A4,4,0,0,0,105,40h-3Zm-0.69.94,0.95,2.84a4,4,0,0,0,1.57-.95l-2.12-2.12A1,1,0,0,1,101.31,40.94Zm-1.25-.62-2.84.95a4,4,0,0,0,1,1.57l2.12-2.12A1,1,0,0,1,100.06,40.31Zm-0.84,3.25A3.94,3.94,0,0,0,101,44V41a1,1,0,0,1-.44-0.12Z"/><circle class="cls-9" cx="23" cy="40" r="9"/><path class="cls-10" d="M23,31a9,9,0,1,1-9,9,9,9,0,0,1,9-9m0-2A11,11,0,1,0,34,40,11,11,0,0,0,23,29h0Z"/><circle class="cls-11" cx="23" cy="40" r="5"/><path class="cls-12" d="M23,35a5,5,0,1,1-5,5,5,5,0,0,1,5-5m0-1a6,6,0,1,0,6,6,6,6,0,0,0-6-6h0Z"/><path class="cls-13" d="M22.29,39.29l-2.12-2.12a4,4,0,0,1,1.57-1l0.95,2.84A1,1,0,0,0,22.29,39.29ZM22,40a1,1,0,0,1,.11-0.44l-2.68-1.34A4,4,0,0,0,19,40h3Zm2.78-3.56A4,4,0,0,0,23,36v3a1,1,0,0,1,.44.11Zm-0.84,3.25,2.84-.95a4,4,0,0,0-1-1.57l-2.12,2.12A1,1,0,0,1,23.94,39.69ZM24,40a1,1,0,0,1-.12.44l2.68,1.34A4,4,0,0,0,27,40H24Zm-0.69.94,0.95,2.84a4,4,0,0,0,1.57-.95l-2.12-2.12A1,1,0,0,1,23.31,40.94Zm-1.25-.62-2.84.95a4,4,0,0,0,1,1.57l2.12-2.12A1,1,0,0,1,22.06,40.31Zm-0.84,3.25A3.94,3.94,0,0,0,23,44V41a1,1,0,0,1-.44-0.12Z"/></svg>