<svg id="Слой_1" data-name="Слой 1" xmlns="http://www.w3.org/2000/svg" width="139" height="51" viewBox="0 0 139 51"><defs><style>.cls-1{fill:#2ecc71;}.cls-2{fill:#a1daf8;}.cls-3{fill:#fff;}.cls-4{fill:#345f41;}.cls-5{fill:#27ae60;}.cls-6{fill:#ffcd02;}.cls-7{fill:#d95459;}.cls-8{fill:#ecf0f1;}.cls-9{fill:#2d5036;}.cls-10{fill:#bdc3c7;}.cls-11{fill:#636363;}.cls-12{fill:#f0deb4;}.cls-13{fill:#7f8c8d;}</style></defs><title>5_minivan_green</title><polygon class="cls-1" points="134 41 16 41 3 41 2 40 2 33 3 32 3 24 4 20 11 4 12 3 14 2 90 2 94 3 96 4 110 15 114 17 130 23 134 25 135 26 136 33 137 34 137 40 134 41"/><polygon class="cls-2" points="80 18 80 5 91 5 94 6 104 14 104 18 80 18"/><rect class="cls-2" x="49" y="5" width="24" height="13"/><polygon class="cls-2" points="42 18 42 5 17 5 12 18 42 18"/><polygon class="cls-3" points="81 17 81 16 91 6 93 7 83 17 81 17"/><polygon class="cls-3" points="85 17 94 8 95 9 87 17 85 17"/><polygon class="cls-3" points="70 6 59 17 56 17 67 6 70 6"/><polygon class="cls-3" points="65 6 54 17 52 17 63 6 65 6"/><polygon class="cls-3" points="37 6 26 17 23 17 34 6 37 6"/><polygon class="cls-3" points="32 6 21 17 19 17 30 6 32 6"/><path class="cls-4" d="M90,2l4,1,2,1,14,11,4,2,16,6,4,2,1,1,1,7,1,1v6l-3,1H3L2,40V33l1-1V24l1-4L11,4l1-1,2-1H90m0-2H14a2,2,0,0,0-.89.21l-2,1a2,2,0,0,0-.52.37l-1,1a2,2,0,0,0-.42.61l-7,16a2,2,0,0,0-.11.32l-1,4A2,2,0,0,0,1,24v7.17l-0.41.41A2,2,0,0,0,0,33v7a2,2,0,0,0,.59,1.41l1,1A2,2,0,0,0,3,43H134a2,2,0,0,0,.63-0.1l3-1A2,2,0,0,0,139,40V34a2,2,0,0,0-.59-1.41L137.89,32,137,25.69a2,2,0,0,0-.57-1.13l-1-1a2,2,0,0,0-.52-0.37l-4-2-0.19-.08-15.9-6-3.72-1.86L97.24,2.4a2,2,0,0,0-.34-0.22l-2-1A2,2,0,0,0,94.49,1l-4-1A2,2,0,0,0,90,0h0Z" transform="translate(0 0.03)"/><path class="cls-4" d="M135,26l1,6h-5l-2-6h6m0-1h-6a1,1,0,0,0-.95,1.32l2,6A1,1,0,0,0,131,33h5a1,1,0,0,0,1-1.16l-1-6a1,1,0,0,0-1-.84h0Z" transform="translate(0 0.03)"/><path class="cls-4" d="M5,24v6H3V24H5m0-1H3a1,1,0,0,0-1,1v6a1,1,0,0,0,1,1H5a1,1,0,0,0,1-1V24a1,1,0,0,0-1-1H5Z" transform="translate(0 0.03)"/><path class="cls-4" d="M91,5l3,1,10,8v4H80V5H91m0-1H80a1,1,0,0,0-1,1V18a1,1,0,0,0,1,1h24a1,1,0,0,0,1-1V14a1,1,0,0,0-.38-0.78l-10-8A1,1,0,0,0,94.32,5l-3-1A1,1,0,0,0,91,4h0Z" transform="translate(0 0.03)"/><path class="cls-4" d="M73,5V18H49V5H73m0-1H49a1,1,0,0,0-1,1V18a1,1,0,0,0,1,1H73a1,1,0,0,0,1-1V5a1,1,0,0,0-1-1h0Z" transform="translate(0 0.03)"/><path class="cls-4" d="M42,5V18H12L17,5H42m0-1H17a1,1,0,0,0-.93.64l-5,13A1,1,0,0,0,12,19H42a1,1,0,0,0,1-1V5a1,1,0,0,0-1-1h0Z" transform="translate(0 0.03)"/><path class="cls-4" d="M105,14l1,2v2h-3V14h2m0-1h-2a1,1,0,0,0-1,1v4a1,1,0,0,0,1,1h3a1,1,0,0,0,1-1V16a1,1,0,0,0-.11-0.45l-1-2A1,1,0,0,0,105,13h0Z" transform="translate(0 0.03)"/><path class="cls-4" d="M83,23v1H80V23h3m0-1H80a1,1,0,0,0-1,1v1a1,1,0,0,0,1,1h3a1,1,0,0,0,1-1V23a1,1,0,0,0-1-1h0Z" transform="translate(0 0.03)"/><path class="cls-4" d="M52,23v1H49V23h3m0-1H49a1,1,0,0,0-1,1v1a1,1,0,0,0,1,1h3a1,1,0,0,0,1-1V23a1,1,0,0,0-1-1h0Z" transform="translate(0 0.03)"/><rect class="cls-4" x="76" y="2" width="1" height="39"/><rect class="cls-4" x="45" y="2" width="1" height="39"/><rect class="cls-5" x="15" y="22" width="30" height="1"/><rect class="cls-1" x="15" y="23" width="30" height="1"/><polygon class="cls-6" points="129 26 131 32 136 32 135 26 129 26"/><rect class="cls-7" x="3" y="24" width="2" height="6"/><polygon class="cls-8" points="103 14 105 14 106 16 106 18 103 18 103 14"/><rect class="cls-8" x="80" y="23" width="3" height="1"/><rect class="cls-8" x="49" y="23" width="3" height="1"/><path class="cls-9" d="M126,42c0-.34,0-0.67,0-1a12,12,0,1,0-24,0c0,0.33,0,.66,0,1H126Z" transform="translate(0 0.03)"/><path class="cls-9" d="M41,42c0-.34,0-0.67,0-1a12,12,0,0,0-24,0c0,0.33,0,.66,0,1H41Z" transform="translate(0 0.03)"/><circle class="cls-10" cx="114" cy="41" r="8"/><path class="cls-11" d="M114,33a8,8,0,1,1-8,8,8,8,0,0,1,8-8m0-2a10,10,0,1,0,10,10,10,10,0,0,0-10-10h0Z" transform="translate(0 0.03)"/><circle class="cls-12" cx="114" cy="41" r="4"/><path class="cls-13" d="M114,37a4,4,0,1,1-4,4,4,4,0,0,1,4-4m0-1a5,5,0,1,0,5,5,5,5,0,0,0-5-5h0Z" transform="translate(0 0.03)"/><circle class="cls-10" cx="29" cy="41" r="8"/><path class="cls-11" d="M29,33a8,8,0,1,1-8,8,8,8,0,0,1,8-8m0-2A10,10,0,1,0,39,41,10,10,0,0,0,29,31h0Z" transform="translate(0 0.03)"/><circle class="cls-12" cx="29" cy="41" r="4"/><path class="cls-13" d="M29,37a4,4,0,1,1-4,4,4,4,0,0,1,4-4m0-1a5,5,0,1,0,5,5,5,5,0,0,0-5-5h0Z" transform="translate(0 0.03)"/></svg>