<svg id="Слой_1" data-name="Слой 1" xmlns="http://www.w3.org/2000/svg" width="139" height="51" viewBox="0 0 139 51"><defs><style>.cls-1{fill:#fff;}.cls-2{fill:#585551;}.cls-3{fill:#7f7d7c;}.cls-4{fill:#c8c7c7;}.cls-5{fill:#afaeae;}.cls-6{fill:#e2e2e2;}.cls-7{fill:#969594;}</style></defs><title>5_minivan_grey_outline</title><polygon class="cls-1" points="134 41 16 41 3 41 2 40 2 33 3 32 3 24 4 20 11 4 12 3 14 2 90 2 94 3 96 4 110 15 114 17 130 23 134 25 135 26 136 33 137 34 137 40 134 41"/><path class="cls-2" d="M90,1.94l4,1,2,1,14,11,4,2,16,6,4,2,1,1,1,7,1,1v6l-3,1H3l-1-1v-7l1-1v-8l1-4,7-16,1-1,2-1H90m0-2H14a2,2,0,0,0-.89.21l-2,1a2,2,0,0,0-.52.37l-1,1a2,2,0,0,0-.42.61l-7,16a2,2,0,0,0-.11.32l-1,4a2,2,0,0,0-.06.48v7.17l-0.41.41A2,2,0,0,0,0,32.94v7a2,2,0,0,0,.59,1.41l1,1A2,2,0,0,0,3,42.94H134a2,2,0,0,0,.63-0.1l3-1a2,2,0,0,0,1.37-1.9v-6a2,2,0,0,0-.59-1.41L137.89,32,137,25.66a2,2,0,0,0-.57-1.13l-1-1a2,2,0,0,0-.52-0.37l-4-2-0.19-.08-15.9-6-3.72-1.86L97.24,2.37a2,2,0,0,0-.34-0.22l-2-1A2,2,0,0,0,94.49,1l-4-1A2,2,0,0,0,90-.06h0Z" transform="translate(0 0.06)"/><path class="cls-3" d="M40,41.94c0-.33,0-0.66,0-1a11,11,0,0,0-22,0c0,0.34,0,.67,0,1H40Z" transform="translate(0 0.06)"/><path class="cls-2" d="M29,29.94a11,11,0,0,1,11,11c0,0.34,0,.67,0,1H18c0-.33,0-0.66,0-1a11,11,0,0,1,11-11m0-1a12,12,0,0,0-12,12c0,0.36,0,.72.05,1.1a1,1,0,0,0,1,.9H40a1,1,0,0,0,1-.9c0-.38.05-0.73,0.05-1.1a12,12,0,0,0-12-12h0Z" transform="translate(0 0.06)"/><circle class="cls-4" cx="29" cy="41" r="8"/><path class="cls-2" d="M29,32.94a8,8,0,1,1-8,8,8,8,0,0,1,8-8m0-2a10,10,0,1,0,10,10,10,10,0,0,0-10-10h0Z" transform="translate(0 0.06)"/><circle class="cls-1" cx="29" cy="41" r="4"/><path class="cls-2" d="M29,36.94a4,4,0,1,1-4,4,4,4,0,0,1,4-4m0-1a5,5,0,1,0,5,5,5,5,0,0,0-5-5h0Z" transform="translate(0 0.06)"/><circle class="cls-3" cx="29" cy="41" r="1"/><path class="cls-5" d="M29,39.94a1,1,0,1,1-1,1,1,1,0,0,1,1-1m0-1a2,2,0,1,0,2,2,2,2,0,0,0-2-2h0Z" transform="translate(0 0.06)"/><path class="cls-3" d="M125,41.94c0-.33,0-0.66,0-1a11,11,0,0,0-22,0c0,0.34,0,.67,0,1H125Z" transform="translate(0 0.06)"/><path class="cls-2" d="M114,29.94a11,11,0,0,1,11,11c0,0.34,0,.67,0,1H103c0-.33,0-0.66,0-1a11,11,0,0,1,11-11m0-1a12,12,0,0,0-12,12c0,0.36,0,.72.05,1.1a1,1,0,0,0,1,.9H125a1,1,0,0,0,1-.9c0-.38.05-0.73,0.05-1.1a12,12,0,0,0-12-12h0Z" transform="translate(0 0.06)"/><circle class="cls-4" cx="114" cy="41" r="8"/><path class="cls-2" d="M114,32.94a8,8,0,1,1-8,8,8,8,0,0,1,8-8m0-2a10,10,0,1,0,10,10,10,10,0,0,0-10-10h0Z" transform="translate(0 0.06)"/><circle class="cls-1" cx="114" cy="41" r="4"/><path class="cls-2" d="M114,36.94a4,4,0,1,1-4,4,4,4,0,0,1,4-4m0-1a5,5,0,1,0,5,5,5,5,0,0,0-5-5h0Z" transform="translate(0 0.06)"/><circle class="cls-3" cx="114" cy="41" r="1"/><path class="cls-5" d="M114,39.94a1,1,0,1,1-1,1,1,1,0,0,1,1-1m0-1a2,2,0,1,0,2,2,2,2,0,0,0-2-2h0Z" transform="translate(0 0.06)"/><polygon class="cls-6" points="129 26 131 32 136 32 135 26 129 26"/><path class="cls-2" d="M135,25.94l1,6h-5l-2-6h6m0-1h-6a1,1,0,0,0-.95,1.32l2,6a1,1,0,0,0,.95.68h5a1,1,0,0,0,1-1.16l-1-6a1,1,0,0,0-1-.84h0Z" transform="translate(0 0.06)"/><rect class="cls-6" x="3" y="24" width="2" height="6"/><path class="cls-2" d="M5,23.94v6H3v-6H5m0-1H3a1,1,0,0,0-1,1v6a1,1,0,0,0,1,1H5a1,1,0,0,0,1-1v-6a1,1,0,0,0-1-1H5Z" transform="translate(0 0.06)"/><polygon class="cls-5" points="80 18 80 5 91 5 94 6 104 14 104 18 80 18"/><path class="cls-2" d="M91,4.94l3,1,10,8v4H80v-13H91m0-1H80a1,1,0,0,0-1,1v13a1,1,0,0,0,1,1h24a1,1,0,0,0,1-1v-4a1,1,0,0,0-.38-0.78l-10-8A1,1,0,0,0,94.32,5l-3-1A1,1,0,0,0,91,3.94h0Z" transform="translate(0 0.06)"/><rect class="cls-5" x="49" y="5" width="24" height="13"/><path class="cls-2" d="M73,4.94v13H49v-13H73m0-1H49a1,1,0,0,0-1,1v13a1,1,0,0,0,1,1H73a1,1,0,0,0,1-1v-13a1,1,0,0,0-1-1h0Z" transform="translate(0 0.06)"/><polygon class="cls-5" points="42 18 42 5 17 5 12 18 42 18"/><path class="cls-2" d="M42,4.94v13H12l5-13H42m0-1H17a1,1,0,0,0-.93.64l-5,13A1,1,0,0,0,12,18.94H42a1,1,0,0,0,1-1v-13a1,1,0,0,0-1-1h0Z" transform="translate(0 0.06)"/><polygon class="cls-1" points="103 14 105 14 106 16 106 18 103 18 103 14"/><path class="cls-2" d="M105,13.94l1,2v2h-3v-4h2m0-1h-2a1,1,0,0,0-1,1v4a1,1,0,0,0,1,1h3a1,1,0,0,0,1-1v-2a1,1,0,0,0-.11-0.45l-1-2a1,1,0,0,0-.89-0.55h0Z" transform="translate(0 0.06)"/><rect class="cls-7" x="80" y="23" width="3" height="1"/><path class="cls-2" d="M83,22.94v1H80v-1h3m0-1H80a1,1,0,0,0-1,1v1a1,1,0,0,0,1,1h3a1,1,0,0,0,1-1v-1a1,1,0,0,0-1-1h0Z" transform="translate(0 0.06)"/><rect class="cls-7" x="49" y="23" width="3" height="1"/><path class="cls-2" d="M52,22.94v1H49v-1h3m0-1H49a1,1,0,0,0-1,1v1a1,1,0,0,0,1,1h3a1,1,0,0,0,1-1v-1a1,1,0,0,0-1-1h0Z" transform="translate(0 0.06)"/><rect class="cls-2" x="76" y="2" width="1" height="39"/><rect class="cls-2" x="45" y="2" width="1" height="39"/><rect class="cls-3" x="15" y="22" width="30" height="1"/><rect class="cls-4" x="15" y="23" width="30" height="1"/></svg>