<svg id="Слой_1" data-name="Слой 1" xmlns="http://www.w3.org/2000/svg" width="138" height="52" viewBox="0 0 138 52"><defs><style>.cls-1{fill:#fff;}.cls-2{fill:#585551;}.cls-3{fill:#7f7d7c;}.cls-4{fill:#c8c7c7;}.cls-5{fill:#afaeae;}.cls-6{fill:#e2e2e2;}.cls-7{fill:#969594;}</style></defs><title>4_jeep_grey_outline</title><path class="cls-1" d="M45,41H18L2,39V32l2-2V18L8.06,5A4.34,4.34,0,0,1,12,2H79L98,15l2,1,25,2,5,1,4,4,1,7,1,1v6l-2,4H45Z"/><path class="cls-2" d="M79,2L98,15l2,1,25,2,5,1,4,4,1,7,1,1v6l-2,4H18L2,39V32l2-2V18L8.06,5A4.34,4.34,0,0,1,12,2H79m0-2H12A6.21,6.21,0,0,0,6.15,4.4l-4.06,13A2,2,0,0,0,2,18V29.17L0.59,30.59A2,2,0,0,0,0,32v7a2,2,0,0,0,1.75,2l16,2L18,43H134a2,2,0,0,0,1.79-1.11l2-4A2,2,0,0,0,138,37V31a2,2,0,0,0-.59-1.41l-0.53-.53L136,22.72a2,2,0,0,0-.57-1.13l-4-4a2,2,0,0,0-1-.55l-5-1-0.23,0-24.61-2L99,13.27,80.13,0.35A2,2,0,0,0,79,0h0Z"/><path class="cls-3" d="M44.83,43a13,13,0,1,0-25.66,0H44.83Z"/><path class="cls-2" d="M32,28A12.91,12.91,0,0,1,44.83,43H19.17A12.91,12.91,0,0,1,32,28m0-1A13.91,13.91,0,0,0,18.18,43.15a1,1,0,0,0,1,.85H44.83a1,1,0,0,0,1-.85A13.91,13.91,0,0,0,32,27h0Z"/><circle class="cls-4" cx="32" cy="41" r="9"/><path class="cls-2" d="M32,32a9,9,0,1,1-9,9,9,9,0,0,1,9-9m0-2A11,11,0,1,0,43,41,11,11,0,0,0,32,30h0Z"/><circle class="cls-1" cx="32" cy="41" r="5"/><path class="cls-2" d="M32,36a5,5,0,1,1-5,5,5,5,0,0,1,5-5m0-1a6,6,0,1,0,6,6,6,6,0,0,0-6-6h0Z"/><path class="cls-2" d="M31.29,40.29l-2.12-2.12a4,4,0,0,1,1.57-1l0.95,2.84A1,1,0,0,0,31.29,40.29ZM31,41a1,1,0,0,1,.11-0.44l-2.68-1.34A4,4,0,0,0,28,41h3Zm2.78-3.56A4,4,0,0,0,32,37v3a1,1,0,0,1,.44.11Zm-0.84,3.25,2.84-.95a4,4,0,0,0-1-1.57l-2.12,2.12A1,1,0,0,1,32.94,40.69ZM33,41a1,1,0,0,1-.12.44l2.68,1.34A4,4,0,0,0,36,41H33Zm-0.69.94,0.95,2.84a4,4,0,0,0,1.57-.95l-2.12-2.12A1,1,0,0,1,32.31,41.94Zm-1.25-.62-2.84.95a4,4,0,0,0,1,1.57l2.12-2.12A1,1,0,0,1,31.06,41.31Zm-0.84,3.25A3.94,3.94,0,0,0,32,45V42a1,1,0,0,1-.44-0.12Z"/><path class="cls-3" d="M127.83,43a13,13,0,1,0-25.66,0h25.66Z"/><path class="cls-2" d="M115,28a12.91,12.91,0,0,1,12.83,15H102.17A12.91,12.91,0,0,1,115,28m0-1a13.91,13.91,0,0,0-13.82,16.15,1,1,0,0,0,1,.85h25.66a1,1,0,0,0,1-.85A13.91,13.91,0,0,0,115,27h0Z"/><circle class="cls-4" cx="115" cy="41" r="9"/><path class="cls-2" d="M115,32a9,9,0,1,1-9,9,9,9,0,0,1,9-9m0-2a11,11,0,1,0,11,11,11,11,0,0,0-11-11h0Z"/><circle class="cls-1" cx="115" cy="41" r="5"/><path class="cls-2" d="M115,36a5,5,0,1,1-5,5,5,5,0,0,1,5-5m0-1a6,6,0,1,0,6,6,6,6,0,0,0-6-6h0Z"/><path class="cls-2" d="M114.29,40.29l-2.12-2.12a4,4,0,0,1,1.57-1l0.95,2.84A1,1,0,0,0,114.29,40.29ZM114,41a1,1,0,0,1,.11-0.44l-2.68-1.34A4,4,0,0,0,111,41h3Zm2.78-3.56A4,4,0,0,0,115,37v3a1,1,0,0,1,.44.11Zm-0.84,3.25,2.84-.95a4,4,0,0,0-1-1.57l-2.12,2.12A1,1,0,0,1,115.94,40.69ZM116,41a1,1,0,0,1-.12.44l2.68,1.34A4,4,0,0,0,119,41h-3Zm-0.69.94,0.95,2.84a4,4,0,0,0,1.57-.95l-2.12-2.12A1,1,0,0,1,115.31,41.94Zm-1.25-.62-2.84.95a4,4,0,0,0,1,1.57l2.12-2.12A1,1,0,0,1,114.06,41.31Zm-0.84,3.25A3.94,3.94,0,0,0,115,45V42a1,1,0,0,1-.44-0.12Z"/><polygon class="cls-5" points="67 5 67 17 92 17 92 15 78 5 67 5"/><path class="cls-2" d="M78,5L92,15v2H67V5H78m0-1H67a1,1,0,0,0-1,1V17a1,1,0,0,0,1,1H92a1,1,0,0,0,1-1V15a1,1,0,0,0-.42-0.81l-14-10A1,1,0,0,0,78,4h0Z"/><rect class="cls-2" x="63" y="2" width="1" height="39"/><rect class="cls-2" x="33" y="2" width="1" height="18"/><polygon class="cls-5" points="60 5 37 5 37 16 60 17 60 5"/><path class="cls-2" d="M60,5V17L37,16V5H60m0-1H37a1,1,0,0,0-1,1V16a1,1,0,0,0,1,1l23,1h0a1,1,0,0,0,1-1V5a1,1,0,0,0-1-1h0Z"/><polygon class="cls-5" points="30 5 13 5 10 15 30 15 30 5"/><path class="cls-2" d="M30,5V15H10L13,5H30m0-1H13a1,1,0,0,0-1,.71l-3,10A1,1,0,0,0,10,16H30a1,1,0,0,0,1-1V5a1,1,0,0,0-1-1h0Z"/><rect class="cls-6" x="4" y="21" width="3" height="7"/><path class="cls-2" d="M7,21v7H4V21H7m0-1H4a1,1,0,0,0-1,1v7a1,1,0,0,0,1,1H7a1,1,0,0,0,1-1V21a1,1,0,0,0-1-1H7Z"/><rect class="cls-7" x="67" y="21" width="3" height="1"/><path class="cls-2" d="M70,21v1H67V21h3m0-1H67a1,1,0,0,0-1,1v1a1,1,0,0,0,1,1h3a1,1,0,0,0,1-1V21a1,1,0,0,0-1-1h0Z"/><rect class="cls-7" x="37" y="19" width="3" height="1"/><path class="cls-2" d="M40,19v1H37V19h3m0-1H37a1,1,0,0,0-1,1v1a1,1,0,0,0,1,1h3a1,1,0,0,0,1-1V19a1,1,0,0,0-1-1h0Z"/><path class="cls-3" d="M16,31.5a0.5,0.5,0,0,1-.43-0.76A18.27,18.27,0,0,1,32,21.5a18,18,0,0,1,14.2,6.17,0.5,0.5,0,1,1-.75.66A17.07,17.07,0,0,0,32,22.5a17.11,17.11,0,0,0-15.57,8.76A0.5,0.5,0,0,1,16,31.5Z"/><path class="cls-3" d="M131,31.5a0.5,0.5,0,0,1-.43-0.24,19.8,19.8,0,0,0-2.93-3.79,17.17,17.17,0,0,0-12.64-5,17.07,17.07,0,0,0-13.45,5.83,0.5,0.5,0,1,1-.75-0.66A18,18,0,0,1,115,21.5a18.14,18.14,0,0,1,13.35,5.26,20.79,20.79,0,0,1,3.08,4A0.5,0.5,0,0,1,131,31.5Z"/><polygon class="cls-6" points="131 20 130 20 129 21 129 23 132 26 134 26 134 23 131 20"/><path class="cls-2" d="M131,20l3,3v3h-2l-3-3V21l1-1h1m0-1h-1a1,1,0,0,0-.71.29l-1,1A1,1,0,0,0,128,21v2a1,1,0,0,0,.29.71l3,3A1,1,0,0,0,132,27h2a1,1,0,0,0,1-1V23a1,1,0,0,0-.29-0.71l-3-3A1,1,0,0,0,131,19h0Z"/><rect class="cls-2" x="96" y="13" width="1" height="21"/><polygon class="cls-2" points="96 41 95 41 96 34 97 34 96 41"/><polygon class="cls-1" points="90 14 92 14 93 16 93 18 90 18 90 14"/><path class="cls-2" d="M92,14l1,2v2H90V14h2m0-1H90a1,1,0,0,0-1,1v4a1,1,0,0,0,1,1h3a1,1,0,0,0,1-1V16a1,1,0,0,0-.11-0.45l-1-2A1,1,0,0,0,92,13h0Z"/></svg>