<svg id="Слой_1" data-name="Слой 1" xmlns="http://www.w3.org/2000/svg" width="138" height="52" viewBox="0 0 138 52"><defs><style>.cls-1{fill:#2ecc71;}.cls-2{fill:#27ae60;}.cls-3{fill:#a1daf8;}.cls-4{fill:#fff;}.cls-5{fill:#345f41;}.cls-6{fill:#d95459;}.cls-7{fill:#ffcd02;}.cls-8{fill:#ecf0f1;}.cls-9{fill:#2d5036;}.cls-10{fill:#bdc3c7;}.cls-11{fill:#636363;}.cls-12{fill:#f0deb4;}.cls-13{fill:#7f8c8d;}.cls-14{fill:#34495e;}</style></defs><title>4_jeep_green</title><path class="cls-1" d="M44.71,41h-27l-16-2V32l2-2V18L7.77,5a4.34,4.34,0,0,1,3.94-3h67l19,13,2,1,25,2,5,1,4,4,1,7,1,1v6l-2,4h-89Z" transform="translate(0.29)"/><path class="cls-2" d="M15.71,31.5a0.5,0.5,0,0,1-.43-0.76A18.27,18.27,0,0,1,31.71,21.5a18,18,0,0,1,14.2,6.17,0.5,0.5,0,1,1-.75.66A17.07,17.07,0,0,0,31.71,22.5a17.11,17.11,0,0,0-15.57,8.76A0.5,0.5,0,0,1,15.71,31.5Z" transform="translate(0.29)"/><path class="cls-2" d="M130.71,31.5a0.5,0.5,0,0,1-.43-0.24,19.8,19.8,0,0,0-2.93-3.79,17.17,17.17,0,0,0-12.64-5,17.07,17.07,0,0,0-13.45,5.83,0.5,0.5,0,1,1-.75-0.66,18,18,0,0,1,14.2-6.17,18.14,18.14,0,0,1,13.35,5.26,20.79,20.79,0,0,1,3.08,4A0.5,0.5,0,0,1,130.71,31.5Z" transform="translate(0.29)"/><polygon class="cls-3" points="67 5 67 17 92 17 92 15 78 5 67 5"/><polygon class="cls-3" points="60 5 37 5 37 16 60 17 60 5"/><polygon class="cls-3" points="30 5 13 5 10 15 30 15 30 5"/><polygon class="cls-4" points="79.33 7.67 71 16 73 16 80.5 8.5 79.33 7.67"/><polygon class="cls-4" points="77 6 76 6 68 14 68 16 69 16 78.17 6.83 77 6"/><polygon class="cls-4" points="29 6 21 14 18 14 26 6 29 6"/><polygon class="cls-4" points="24 6 16 14 14 14 22 6 24 6"/><polygon class="cls-4" points="42.77 15.23 52 6 50 6 40.86 15.14 42.77 15.23"/><polygon class="cls-4" points="47.55 15.45 57 6 54 6 44.68 15.32 47.55 15.45"/><path class="cls-5" d="M78.71,2l19,13,2,1,25,2,5,1,4,4,1,7,1,1v6l-2,4h-116l-16-2V32l2-2V18L7.77,5a4.34,4.34,0,0,1,3.94-3h67m0-2h-67A6.21,6.21,0,0,0,5.86,4.4L1.8,17.4a2,2,0,0,0-.09.6V29.17L0.29,30.59A2,2,0,0,0-.29,32v7a2,2,0,0,0,1.75,2l16,2,0.25,0h116a2,2,0,0,0,1.79-1.11l2-4a2,2,0,0,0,.21-0.89V31a2,2,0,0,0-.59-1.41l-0.53-.53-0.91-6.34a2,2,0,0,0-.57-1.13l-4-4a2,2,0,0,0-1-.55l-5-1-0.23,0-24.61-2-1.53-.77L79.84,0.35A2,2,0,0,0,78.71,0h0Z" transform="translate(0.29)"/><rect class="cls-5" x="63" y="2" width="1" height="39"/><rect class="cls-5" x="33" y="2" width="1" height="18"/><rect class="cls-5" x="96" y="13" width="1" height="21"/><polygon class="cls-5" points="96 41 95 41 96 34 97 34 96 41"/><path class="cls-5" d="M6.71,21v7h-3V21h3m0-1h-3a1,1,0,0,0-1,1v7a1,1,0,0,0,1,1h3a1,1,0,0,0,1-1V21a1,1,0,0,0-1-1h0Z" transform="translate(0.29)"/><path class="cls-5" d="M69.71,21v1h-3V21h3m0-1h-3a1,1,0,0,0-1,1v1a1,1,0,0,0,1,1h3a1,1,0,0,0,1-1V21a1,1,0,0,0-1-1h0Z" transform="translate(0.29)"/><path class="cls-5" d="M39.71,19v1h-3V19h3m0-1h-3a1,1,0,0,0-1,1v1a1,1,0,0,0,1,1h3a1,1,0,0,0,1-1V19a1,1,0,0,0-1-1h0Z" transform="translate(0.29)"/><path class="cls-5" d="M77.71,5l14,10v2h-25V5h11m0-1h-11a1,1,0,0,0-1,1V17a1,1,0,0,0,1,1h25a1,1,0,0,0,1-1V15a1,1,0,0,0-.42-0.81l-14-10A1,1,0,0,0,77.71,4h0Z" transform="translate(0.29)"/><path class="cls-5" d="M59.71,5V17l-23-1V5h23m0-1h-23a1,1,0,0,0-1,1V16a1,1,0,0,0,1,1l23,1h0a1,1,0,0,0,1-1V5a1,1,0,0,0-1-1h0Z" transform="translate(0.29)"/><path class="cls-5" d="M29.71,5V15h-20l3-10h17m0-1h-17a1,1,0,0,0-1,.71l-3,10a1,1,0,0,0,1,1.29h20a1,1,0,0,0,1-1V5a1,1,0,0,0-1-1h0Z" transform="translate(0.29)"/><path class="cls-5" d="M130.71,20l3,3v3h-2l-3-3V21l1-1h1m0-1h-1a1,1,0,0,0-.71.29l-1,1a1,1,0,0,0-.29.71v2a1,1,0,0,0,.29.71l3,3a1,1,0,0,0,.71.29h2a1,1,0,0,0,1-1V23a1,1,0,0,0-.29-0.71l-3-3a1,1,0,0,0-.71-0.29h0Z" transform="translate(0.29)"/><path class="cls-5" d="M91.71,14l1,2v2h-3V14h2m0-1h-2a1,1,0,0,0-1,1v4a1,1,0,0,0,1,1h3a1,1,0,0,0,1-1V16a1,1,0,0,0-.11-0.45l-1-2A1,1,0,0,0,91.71,13h0Z" transform="translate(0.29)"/><rect class="cls-6" x="4" y="21" width="3" height="7"/><polygon class="cls-7" points="131 20 130 20 129 21 129 23 132 26 134 26 134 23 131 20"/><rect class="cls-8" x="67" y="21" width="3" height="1"/><rect class="cls-8" x="37" y="19" width="3" height="1"/><polygon class="cls-8" points="90 14 92 14 93 16 93 18 90 18 90 14"/><path class="cls-9" d="M31.71,27A13.91,13.91,0,0,0,17.89,43.15a1,1,0,0,0,1,.85H44.54a1,1,0,0,0,1-.85A13.91,13.91,0,0,0,31.71,27Z" transform="translate(0.29)"/><path class="cls-9" d="M114.71,27a13.91,13.91,0,0,0-13.82,16.15,1,1,0,0,0,1,.85h25.66a1,1,0,0,0,1-.85A13.91,13.91,0,0,0,114.71,27Z" transform="translate(0.29)"/><circle class="cls-10" cx="32" cy="41" r="9"/><path class="cls-11" d="M31.71,32a9,9,0,1,1-9,9,9,9,0,0,1,9-9m0-2a11,11,0,1,0,11,11,11,11,0,0,0-11-11h0Z" transform="translate(0.29)"/><circle class="cls-12" cx="32" cy="41" r="5"/><path class="cls-13" d="M31.71,36a5,5,0,1,1-5,5,5,5,0,0,1,5-5m0-1a6,6,0,1,0,6,6,6,6,0,0,0-6-6h0Z" transform="translate(0.29)"/><path class="cls-14" d="M31,40.29l-2.12-2.12a4,4,0,0,1,1.57-1l0.95,2.84A1,1,0,0,0,31,40.29ZM30.71,41a1,1,0,0,1,.11-0.44l-2.68-1.34A4,4,0,0,0,27.71,41h3Zm2.78-3.56A4,4,0,0,0,31.71,37v3a1,1,0,0,1,.44.11Zm-0.84,3.25,2.84-.95a4,4,0,0,0-1-1.57l-2.12,2.12A1,1,0,0,1,32.64,40.69ZM32.71,41a1,1,0,0,1-.12.44l2.68,1.34A4,4,0,0,0,35.71,41h-3ZM32,41.94L33,44.78a4,4,0,0,0,1.57-.95l-2.12-2.12A1,1,0,0,1,32,41.94Zm-1.25-.62-2.84.95a4,4,0,0,0,1,1.57L31,41.71A1,1,0,0,1,30.77,41.31Zm-0.84,3.25a3.94,3.94,0,0,0,1.78.44V42a1,1,0,0,1-.44-0.12Z" transform="translate(0.29)"/><circle class="cls-10" cx="115" cy="41" r="9"/><path class="cls-11" d="M114.71,32a9,9,0,1,1-9,9,9,9,0,0,1,9-9m0-2a11,11,0,1,0,11,11,11,11,0,0,0-11-11h0Z" transform="translate(0.29)"/><circle class="cls-12" cx="115" cy="41" r="5"/><path class="cls-13" d="M114.71,36a5,5,0,1,1-5,5,5,5,0,0,1,5-5m0-1a6,6,0,1,0,6,6,6,6,0,0,0-6-6h0Z" transform="translate(0.29)"/><path class="cls-14" d="M114,40.29l-2.12-2.12a4,4,0,0,1,1.57-1l0.95,2.84A1,1,0,0,0,114,40.29Zm-0.29.71a1,1,0,0,1,.11-0.44l-2.68-1.34a4,4,0,0,0-.44,1.78h3Zm2.78-3.56a4,4,0,0,0-1.78-.44v3a1,1,0,0,1,.44.11Zm-0.84,3.25,2.84-.95a4,4,0,0,0-1-1.57l-2.12,2.12A1,1,0,0,1,115.64,40.69ZM115.71,41a1,1,0,0,1-.12.44l2.68,1.34a4,4,0,0,0,.44-1.78h-3Zm-0.69.94L116,44.78a4,4,0,0,0,1.57-.95l-2.12-2.12A1,1,0,0,1,115,41.94Zm-1.25-.62-2.84.95a4,4,0,0,0,1,1.57L114,41.71A1,1,0,0,1,113.77,41.31Zm-0.84,3.25a3.94,3.94,0,0,0,1.78.44V42a1,1,0,0,1-.44-0.12Z" transform="translate(0.29)"/></svg>