<svg id="Слой_1" data-name="Слой 1" xmlns="http://www.w3.org/2000/svg" width="135" height="45" viewBox="0 0 135 45"><defs><style>.cls-1{fill:#fff;}.cls-2{fill:#585551;}.cls-3{fill:#7f7d7c;}.cls-4{fill:#c8c7c7;}.cls-5{fill:#afaeae;}.cls-6{fill:#e2e2e2;}.cls-7{fill:#969594;}</style></defs><title>6_wagon_grey_outline</title><polygon class="cls-1" points="130 36 19 36 3 33 2 31 3 25 3 14 14 4 18 2 76 2 101 14 126 17 130 19 132 22 133 26 133 33 130 36"/><path class="cls-2" d="M76,2l25,12,25,3,4,2,2,3,1,4v7l-3,3H19L3,33,2,31l1-6V14L14,4l4-2H76m0-2H18a2,2,0,0,0-.89.21l-4,2a2,2,0,0,0-.45.31l-11,10A2,2,0,0,0,1,14V24.83L0,30.67a2,2,0,0,0,.18,1.22l1,2A2,2,0,0,0,2.63,35l16,3A2,2,0,0,0,19,38H130a2,2,0,0,0,1.41-.59l3-3A2,2,0,0,0,135,33V26a2,2,0,0,0-.06-0.48l-1-4a2,2,0,0,0-.28-0.62l-2-3a2,2,0,0,0-.77-0.68l-4-2a2,2,0,0,0-.66-0.2l-24.67-3L76.87,0.2A2,2,0,0,0,76,0h0Z" transform="translate(0)"/><path class="cls-3" d="M39.81,37a11,11,0,1,0-21.62,0H39.81Z" transform="translate(0)"/><path class="cls-2" d="M29,24A11,11,0,0,1,39.81,37H18.19A11,11,0,0,1,29,24m0-1A12,12,0,0,0,17.21,37.18a1,1,0,0,0,1,.82H39.81a1,1,0,0,0,1-.82A12,12,0,0,0,29,23h0Z" transform="translate(0)"/><circle class="cls-4" cx="29" cy="35" r="8"/><path class="cls-2" d="M29,27a8,8,0,1,1-8,8,8,8,0,0,1,8-8m0-2A10,10,0,1,0,39,35,10,10,0,0,0,29,25h0Z" transform="translate(0)"/><circle class="cls-1" cx="29" cy="35" r="4"/><path class="cls-2" d="M29,31a4,4,0,1,1-4,4,4,4,0,0,1,4-4m0-1a5,5,0,1,0,5,5,5,5,0,0,0-5-5h0Z" transform="translate(0)"/><circle class="cls-3" cx="29" cy="35" r="1"/><path class="cls-5" d="M29,34a1,1,0,1,1-1,1,1,1,0,0,1,1-1m0-1a2,2,0,1,0,2,2,2,2,0,0,0-2-2h0Z" transform="translate(0)"/><path class="cls-3" d="M122.81,37a11,11,0,1,0-21.62,0h21.62Z" transform="translate(0)"/><path class="cls-2" d="M112,24a11,11,0,0,1,10.81,13H101.19A11,11,0,0,1,112,24m0-1a12,12,0,0,0-11.79,14.18,1,1,0,0,0,1,.82h21.62a1,1,0,0,0,1-.82A12,12,0,0,0,112,23h0Z" transform="translate(0)"/><circle class="cls-4" cx="112" cy="35" r="8"/><path class="cls-2" d="M112,27a8,8,0,1,1-8,8,8,8,0,0,1,8-8m0-2a10,10,0,1,0,10,10,10,10,0,0,0-10-10h0Z" transform="translate(0)"/><circle class="cls-1" cx="112" cy="35" r="4"/><path class="cls-2" d="M112,31a4,4,0,1,1-4,4,4,4,0,0,1,4-4m0-1a5,5,0,1,0,5,5,5,5,0,0,0-5-5h0Z" transform="translate(0)"/><circle class="cls-3" cx="112" cy="35" r="1"/><path class="cls-5" d="M112,34a1,1,0,1,1-1,1,1,1,0,0,1,1-1m0-1a2,2,0,1,0,2,2,2,2,0,0,0-2-2h0Z" transform="translate(0)"/><polygon class="cls-6" points="124 20 124 22 130 25 133 25 132 22 131 20 124 20"/><path class="cls-2" d="M131,20l1,2,1,3h-3l-6-3V20h7m0-1h-7a1,1,0,0,0-1,1v2a1,1,0,0,0,.55.89l6,3A1,1,0,0,0,130,26h3a1,1,0,0,0,.95-1.32l-1-3-0.05-.13-1-2A1,1,0,0,0,131,19h0Z" transform="translate(0)"/><polygon class="cls-6" points="3 18 9 18 9 21 7 23 3 23 3 18"/><path class="cls-2" d="M9,18v3L7,23H3V18H9m0-1H3a1,1,0,0,0-1,1v5a1,1,0,0,0,1,1H7a1,1,0,0,0,.71-0.29l2-2A1,1,0,0,0,10,21V18a1,1,0,0,0-1-1H9Z" transform="translate(0)"/><rect class="cls-2" x="62" y="2" width="1" height="34"/><polygon class="cls-5" points="66 13 66 5 75 5 90 12 90 13 66 13"/><path class="cls-2" d="M75,5l15,7v1H66V5h9m0-1H66a1,1,0,0,0-1,1v8a1,1,0,0,0,1,1H90a1,1,0,0,0,1-1V12a1,1,0,0,0-.58-0.91l-15-7A1,1,0,0,0,75,4h0Z" transform="translate(0)"/><polygon class="cls-1" points="87 10 89 10 90 12 90 14 87 14 87 10"/><path class="cls-2" d="M89,10l1,2v2H87V10h2m0-1H87a1,1,0,0,0-1,1v4a1,1,0,0,0,1,1h3a1,1,0,0,0,1-1V12a1,1,0,0,0-.11-0.45l-1-2A1,1,0,0,0,89,9h0Z" transform="translate(0)"/><rect class="cls-5" x="40" y="5" width="19" height="8"/><path class="cls-2" d="M59,5v8H40V5H59m0-1H40a1,1,0,0,0-1,1v8a1,1,0,0,0,1,1H59a1,1,0,0,0,1-1V5a1,1,0,0,0-1-1h0Z" transform="translate(0)"/><polygon class="cls-5" points="33 13 33 5 21 5 12 13 33 13"/><path class="cls-2" d="M33,5v8H12l9-8H33m0-1H21a1,1,0,0,0-.66.25l-9,8A1,1,0,0,0,12,14H33a1,1,0,0,0,1-1V5a1,1,0,0,0-1-1h0Z" transform="translate(0)"/><rect class="cls-2" x="97" y="16" width="1" height="11"/><polygon class="cls-2" points="98 16 97 16 95 11 96 11 98 16"/><polygon class="cls-2" points="96 36 95 36 97 27 98 27 96 36"/><rect class="cls-7" x="66" y="17" width="3" height="1"/><path class="cls-2" d="M69,17v1H66V17h3m0-1H66a1,1,0,0,0-1,1v1a1,1,0,0,0,1,1h3a1,1,0,0,0,1-1V17a1,1,0,0,0-1-1h0Z" transform="translate(0)"/><rect class="cls-7" x="40" y="17" width="3" height="1"/><path class="cls-2" d="M43,17v1H40V17h3m0-1H40a1,1,0,0,0-1,1v1a1,1,0,0,0,1,1h3a1,1,0,0,0,1-1V17a1,1,0,0,0-1-1h0Z" transform="translate(0)"/><rect class="cls-2" x="36" y="2" width="1" height="20"/><polygon class="cls-2" points="39 25 38 25 36 22 37 22 39 25"/></svg>