<svg id="Слой_1" data-name="Слой 1" xmlns="http://www.w3.org/2000/svg" width="135" height="45" viewBox="0 0 135 45"><defs><style>.cls-1{fill:#2ecc71;}.cls-2{fill:#a1daf8;}.cls-3{fill:#fff;}.cls-4{fill:#345f41;}.cls-5{fill:#ffcd02;}.cls-6{fill:#d95459;}.cls-7{fill:#f0deb4;}.cls-8{fill:#2d5036;}.cls-9{fill:#bdc3c7;}.cls-10{fill:#636363;}.cls-11{fill:#7f8c8d;}</style></defs><title>6_wagon_green</title><polygon class="cls-1" points="130 36 19 36 3 33 2 31 3 25 3 14 14 4 18 2 76 2 101 14 126 17 130 19 132 22 133 26 133 33 130 36"/><polygon class="cls-2" points="66 13 66 5 75 5 90 12 90 13 66 13"/><rect class="cls-2" x="40" y="5" width="19" height="8"/><polygon class="cls-2" points="33 13 33 5 21 5 12 13 33 13"/><polygon class="cls-3" points="67 10 71 6 74 6 68 12 67 12 67 10"/><polygon class="cls-3" points="75.68 6.32 70 12 72 12 77.05 6.95 75.68 6.32"/><polygon class="cls-3" points="56 6 50 12 47 12 53 6 55 6 56 6"/><polygon class="cls-3" points="45 12 43 12 49 6 51 6 45 12"/><polygon class="cls-3" points="32 6 26 12 23 12 29 6 31 6 32 6"/><polygon class="cls-3" points="21 12 19 12 25 6 27 6 21 12"/><path class="cls-4" d="M75.47,2l25,12,25,3,4,2,2,3,1,4v7l-3,3h-111l-16-3-1-2,1-6V14l11-10,4-2h58m0-2h-58a2,2,0,0,0-.89.21l-4,2a2,2,0,0,0-.45.31l-11,10A2,2,0,0,0,.47,14V24.83l-1,5.84a2,2,0,0,0,.18,1.22l1,2A2,2,0,0,0,2.1,35l16,3a2,2,0,0,0,.37,0h111a2,2,0,0,0,1.41-.59l3-3a2,2,0,0,0,.59-1.41V26a2,2,0,0,0-.06-0.48l-1-4a2,2,0,0,0-.28-0.62l-2-3a2,2,0,0,0-.77-0.68l-4-2a2,2,0,0,0-.66-0.2l-24.67-3L76.34,0.2A2,2,0,0,0,75.47,0h0Z" transform="translate(0.53)"/><path class="cls-4" d="M130.47,20l1,2,1,3h-3l-6-3V20h7m0-1h-7a1,1,0,0,0-1,1v2a1,1,0,0,0,.55.89l6,3a1,1,0,0,0,.45.11h3a1,1,0,0,0,.95-1.32l-1-3-0.05-.13-1-2a1,1,0,0,0-.89-0.55h0Z" transform="translate(0.53)"/><path class="cls-4" d="M8.47,18v3l-2,2h-4V18h6m0-1h-6a1,1,0,0,0-1,1v5a1,1,0,0,0,1,1h4a1,1,0,0,0,.71-0.29l2-2A1,1,0,0,0,9.47,21V18a1,1,0,0,0-1-1h0Z" transform="translate(0.53)"/><rect class="cls-4" x="62" y="2" width="1" height="34"/><path class="cls-4" d="M74.47,5l15,7v1h-24V5h9m0-1h-9a1,1,0,0,0-1,1v8a1,1,0,0,0,1,1h24a1,1,0,0,0,1-1V12a1,1,0,0,0-.58-0.91l-15-7A1,1,0,0,0,74.47,4h0Z" transform="translate(0.53)"/><path class="cls-4" d="M88.47,10l1,2v2h-3V10h2m0-1h-2a1,1,0,0,0-1,1v4a1,1,0,0,0,1,1h3a1,1,0,0,0,1-1V12a1,1,0,0,0-.11-0.45l-1-2A1,1,0,0,0,88.47,9h0Z" transform="translate(0.53)"/><path class="cls-4" d="M58.47,5v8h-19V5h19m0-1h-19a1,1,0,0,0-1,1v8a1,1,0,0,0,1,1h19a1,1,0,0,0,1-1V5a1,1,0,0,0-1-1h0Z" transform="translate(0.53)"/><path class="cls-4" d="M32.47,5v8h-21l9-8h12m0-1h-12a1,1,0,0,0-.66.25l-9,8A1,1,0,0,0,11.47,14h21a1,1,0,0,0,1-1V5a1,1,0,0,0-1-1h0Z" transform="translate(0.53)"/><rect class="cls-4" x="97" y="16" width="1" height="11"/><polygon class="cls-4" points="98 16 97 16 95 11 96 11 98 16"/><polygon class="cls-4" points="96 36 95 36 97 27 98 27 96 36"/><path class="cls-4" d="M68.47,17v1h-3V17h3m0-1h-3a1,1,0,0,0-1,1v1a1,1,0,0,0,1,1h3a1,1,0,0,0,1-1V17a1,1,0,0,0-1-1h0Z" transform="translate(0.53)"/><path class="cls-4" d="M42.47,17v1h-3V17h3m0-1h-3a1,1,0,0,0-1,1v1a1,1,0,0,0,1,1h3a1,1,0,0,0,1-1V17a1,1,0,0,0-1-1h0Z" transform="translate(0.53)"/><rect class="cls-4" x="36" y="2" width="1" height="20"/><polygon class="cls-4" points="39 25 38 25 36 22 37 22 39 25"/><polygon class="cls-5" points="124 20 124 22 130 25 133 25 132 22 131 20 124 20"/><polygon class="cls-6" points="3 18 9 18 9 21 7 23 3 23 3 18"/><polygon class="cls-7" points="87 10 89 10 90 12 90 14 87 14 87 10"/><rect class="cls-7" x="66" y="17" width="3" height="1"/><rect class="cls-7" x="40" y="17" width="3" height="1"/><path class="cls-8" d="M28.47,23a12,12,0,0,0-12,12,11.89,11.89,0,0,0,.21,2.18,1,1,0,0,0,1,.82H39.28a1,1,0,0,0,1-.82A11.89,11.89,0,0,0,40.47,35,12,12,0,0,0,28.47,23Z" transform="translate(0.53)"/><path class="cls-8" d="M111.47,23a12,12,0,0,0-12,12,11.89,11.89,0,0,0,.21,2.18,1,1,0,0,0,1,.82h21.62a1,1,0,0,0,1-.82,11.89,11.89,0,0,0,.21-2.18A12,12,0,0,0,111.47,23Z" transform="translate(0.53)"/><circle class="cls-9" cx="29" cy="35" r="8"/><path class="cls-10" d="M28.47,27a8,8,0,1,1-8,8,8,8,0,0,1,8-8m0-2a10,10,0,1,0,10,10,10,10,0,0,0-10-10h0Z" transform="translate(0.53)"/><circle class="cls-7" cx="29" cy="35" r="4"/><path class="cls-11" d="M28.47,31a4,4,0,1,1-4,4,4,4,0,0,1,4-4m0-1a5,5,0,1,0,5,5,5,5,0,0,0-5-5h0Z" transform="translate(0.53)"/><circle class="cls-9" cx="112" cy="35" r="8"/><path class="cls-10" d="M111.47,27a8,8,0,1,1-8,8,8,8,0,0,1,8-8m0-2a10,10,0,1,0,10,10,10,10,0,0,0-10-10h0Z" transform="translate(0.53)"/><circle class="cls-7" cx="112" cy="35" r="4"/><path class="cls-11" d="M111.47,31a4,4,0,1,1-4,4,4,4,0,0,1,4-4m0-1a5,5,0,1,0,5,5,5,5,0,0,0-5-5h0Z" transform="translate(0.53)"/></svg>