<svg xmlns="http://www.w3.org/2000/svg" xmlns:xlink="http://www.w3.org/1999/xlink" preserveAspectRatio="xMidYMid" width="29" height="36" viewBox="0 0 29 36">
  <defs>
    <style>
      .cls-1 {
        fill: #999;
        fill-rule: evenodd;
      }
    </style>
  </defs>
  <path d="M28.706,0.266 C28.323,-0.105 27.711,-0.096 27.340,0.284 C26.543,1.100 22.534,5.355 21.831,9.009 C21.307,11.733 22.305,14.780 23.270,17.726 C23.949,19.800 24.591,21.761 24.591,23.318 C24.591,24.676 24.010,25.409 23.464,25.409 C22.974,25.409 22.457,24.773 22.457,23.559 C22.457,22.061 22.462,17.708 18.961,17.130 L18.961,6.966 C18.961,6.435 18.568,6.065 18.035,6.065 L16.787,6.065 L16.787,5.043 C16.787,4.511 16.395,4.141 15.861,4.141 L6.080,4.141 C5.547,4.141 5.074,4.511 5.074,5.043 L5.074,6.065 L4.028,6.065 C3.494,6.065 3.022,6.435 3.022,6.966 L3.022,31.915 L1.009,31.915 C0.475,31.915 0.003,32.284 0.003,32.817 L0.003,34.981 C0.003,35.512 0.475,36.003 1.009,36.003 L21.054,36.003 C21.587,36.003 21.980,35.512 21.980,34.981 L21.980,32.817 C21.980,32.284 21.587,31.915 21.054,31.915 L18.961,31.915 L18.961,19.100 C19.685,19.368 20.525,20.304 20.525,23.559 C20.525,26.151 22.049,27.332 23.454,27.332 C24.974,27.332 26.518,25.954 26.518,23.318 C26.518,21.456 25.832,19.355 25.104,17.130 C24.602,15.598 24.092,14.035 23.819,12.563 C25.361,12.232 26.388,11.515 26.873,10.423 C27.810,8.317 26.242,5.752 25.821,5.125 C26.697,3.872 27.733,2.641 28.725,1.625 C29.097,1.246 29.088,0.635 28.706,0.266 ZM16.787,16.044 C16.787,16.575 16.355,17.005 15.821,17.005 L6.040,17.005 C5.507,17.005 5.074,16.575 5.074,16.044 L5.074,9.191 C5.074,8.660 5.507,8.229 6.040,8.229 L15.821,8.229 C16.355,8.229 16.787,8.660 16.787,9.191 L16.787,16.044 ZM25.106,9.646 C24.901,10.106 24.402,10.437 23.620,10.636 C23.617,10.198 23.651,9.776 23.728,9.372 C23.866,8.654 24.202,7.834 24.664,6.982 C25.063,7.790 25.440,8.899 25.106,9.646 Z" class="cls-1"/>
</svg>
