<svg id="Слой_1" data-name="Слой 1" xmlns="http://www.w3.org/2000/svg" width="202.42" height="203.87" viewBox="0 0 202.42 203.87"><defs><style>.cls-1{fill:#e56266;}.cls-2{fill:#fff;}</style></defs><title>1</title><path class="cls-1" d="M181.06,106.47c-0.1-.11-0.18-0.2-0.28-0.31l-4.72-4.55c3.91-.89,8.13-4.18,8.13-7.54,0-3.93-5.44-5.32-10.09-5.32-4.85,0-5.41,3.33-5.48,5.69L156.43,82.68a17.22,17.22,0,0,0-10.68-4.38H98.25a17.23,17.23,0,0,0-10.68,4.38L75.39,94.43c-0.07-2.35-.63-5.69-5.48-5.69-4.66,0-10.1,1.39-10.1,5.32,0,3.36,4.22,6.65,8.14,7.54l-4.73,4.55c-0.11.11-.18,0.2-0.27,0.31-5.05,4.33-8.36,12.33-8.36,18.15V141.9a15.72,15.72,0,0,0,4.33,10.83v6.7a7.22,7.22,0,0,0,7.31,7.11h8.85a7.22,7.22,0,0,0,7.31-7.11v-1.72h79.23v1.72a7.22,7.22,0,0,0,7.31,7.11h8.84a7.22,7.22,0,0,0,7.32-7.11v-6.7a15.72,15.72,0,0,0,4.33-10.83V124.62c0-5.82-3.31-13.82-8.35-18.15h0ZM92,87.9a12.14,12.14,0,0,1,6.2-2.51h47.5A12.13,12.13,0,0,1,152,87.9l16,15.49H76.06Zm-32,34.1a7.58,7.58,0,0,1,7.44-7.71c4.11,0,17.53,7.89,17.53,12.14s-13.42,3.27-17.53,3.27a7.57,7.57,0,0,1-7.44-7.7h0Zm22.32,28.14H71.14A15.84,15.84,0,0,1,66,147.66a6.82,6.82,0,0,1-1.4-1.41,5,5,0,0,1-.78-1.42c-1-3,1.11-5.67,1.11-5.67H79.28l9.57,11H82.39Zm60.25,0H101.37a7.8,7.8,0,0,1-7.79-7.79h56.84a7.8,7.8,0,0,1-7.79,7.79h0ZM144.44,137H99.56c-4.67,0-8.48-5.76-8.48-12.87h61.83c0,7.11-3.79,12.87-8.46,12.87h0Zm35.73,7.79a5.32,5.32,0,0,1-.78,1.42,7.13,7.13,0,0,1-1.4,1.42,16.13,16.13,0,0,1-5.13,2.49H155.14l9.57-11h14.35s2.16,2.71,1.11,5.67h0Zm-3.68-15.13c-4.11,0-17.53,1-17.53-3.27s13.42-12.14,17.53-12.14a7.71,7.71,0,0,1,0,15.41h0Zm0,0" transform="translate(-20.79 -20.48)"/><path class="cls-1" d="M169.91,180.12A28.15,28.15,0,1,1,198.07,152,28.19,28.19,0,0,1,169.91,180.12Z" transform="translate(-20.79 -20.48)"/><path class="cls-2" d="M169.91,125.81A26.15,26.15,0,1,1,143.76,152a26.18,26.18,0,0,1,26.15-26.15m0-4A30.15,30.15,0,1,0,200.07,152a30.15,30.15,0,0,0-30.15-30.15h0Z" transform="translate(-20.79 -20.48)"/><path class="cls-1" d="M26.3,122a95.83,95.83,0,0,1,57-87.5,1.83,1.83,0,0,0,1.06-2.06l-0.39-1.84a1.83,1.83,0,0,0-2.52-1.31,101.21,101.21,0,0,0,37.74,193.88,2.77,2.77,0,0,0,2.86-2.75h0a2.74,2.74,0,0,0-2.65-2.75A95.82,95.82,0,0,1,26.3,122ZM122,23.63h0a2.74,2.74,0,0,0,2.65,2.75,95.7,95.7,0,0,1,36.1,183.17,1.83,1.83,0,0,0-1.06,2.06l0.39,1.84a1.83,1.83,0,0,0,2.52,1.31A101.21,101.21,0,0,0,124.86,20.87,2.77,2.77,0,0,0,122,23.63Z" transform="translate(-20.79 -20.48)"/><path class="cls-1" d="M105.2,27L83.5,45.14a0.92,0.92,0,0,1-1.5-.86l2-12.05a1,1,0,0,0-.21-0.79L76,22a0.92,0.92,0,0,1,.87-1.49l27.87,4.87A0.92,0.92,0,0,1,105.2,27Z" transform="translate(-20.79 -20.48)"/><path class="cls-1" d="M138.8,217.85l21.7-18.15a0.92,0.92,0,0,1,1.5.86l-2,12.05a1,1,0,0,0,.21.79l7.75,9.45a0.92,0.92,0,0,1-.87,1.49l-27.87-4.87A0.92,0.92,0,0,1,138.8,217.85Z" transform="translate(-20.79 -20.48)"/><path class="cls-2" d="M182.06,141.39a2,2,0,0,0-2.78.5L168.08,158l-7.9-6.48a2,2,0,1,0-2.53,3.1l9.57,7.86a2,2,0,0,0,1.27.45,1.31,1.31,0,0,0,.28,0,2,2,0,0,0,1.37-.83l12.42-17.87a2,2,0,0,0-.5-2.78h0Zm0,0" transform="translate(-20.79 -20.48)"/></svg>