<svg id="Слой_1" data-name="Слой 1" xmlns="http://www.w3.org/2000/svg" width="160.13" height="128.74" viewBox="0 0 160.13 128.74"><defs><style>.cls-1,.cls-2{fill:#e56266;}.cls-2{stroke:#fff;stroke-miterlimit:10;stroke-width:3px;}.cls-3{fill:#fff;}.cls-4{fill:#af4f5b;}</style></defs><title>2</title><path class="cls-1" d="M172.4,124.43c-0.1-.11-0.18-0.21-0.29-0.32l-4.84-4.67c4-.91,8.34-4.29,8.34-7.73,0-4-5.58-5.46-10.35-5.46-5,0-5.55,3.42-5.62,5.83L147.14,100a17.67,17.67,0,0,0-11-4.49H87.47a17.68,17.68,0,0,0-11,4.49L64,112.08c-0.07-2.41-.65-5.83-5.62-5.83-4.78,0-10.36,1.42-10.36,5.46,0,3.45,4.32,6.82,8.35,7.73l-4.85,4.67c-0.11.11-.18,0.21-0.28,0.32-5.18,4.44-8.57,12.65-8.57,18.62v17.72a16.13,16.13,0,0,0,4.44,11.11v6.88a7.4,7.4,0,0,0,7.5,7.29H63.7a7.4,7.4,0,0,0,7.5-7.29V177h81.26v1.76A7.4,7.4,0,0,0,160,186H169a7.4,7.4,0,0,0,7.51-7.29v-6.88A16.13,16.13,0,0,0,181,160.77V143c0-6-3.39-14.18-8.57-18.62h0Zm-91.29-19a12.45,12.45,0,0,1,6.36-2.58h48.71a12.45,12.45,0,0,1,6.37,2.58l16.4,15.89H64.71Zm-32.8,35a7.77,7.77,0,0,1,7.63-7.91c4.22,0,18,8.09,18,12.46s-13.77,3.35-18,3.35a7.76,7.76,0,0,1-7.63-7.9h0ZM71.2,169.21H59.66a16.25,16.25,0,0,1-5.26-2.55A7,7,0,0,1,53,165.23a5.08,5.08,0,0,1-.8-1.46c-1.08-3,1.14-5.81,1.14-5.81H68l9.81,11.26H71.2Zm61.79,0H90.67a8,8,0,0,1-8-8H141a8,8,0,0,1-8,8h0Zm1.86-13.45h-46c-4.79,0-8.7-5.91-8.7-13.2h63.42c0,7.29-3.89,13.2-8.68,13.2h0Zm36.64,8a5.46,5.46,0,0,1-.8,1.46,7.32,7.32,0,0,1-1.43,1.46,16.55,16.55,0,0,1-5.26,2.55H145.81L155.63,158h14.72s2.22,2.78,1.14,5.81h0Zm-3.78-15.51c-4.22,0-18,1-18-3.35s13.76-12.46,18-12.46a7.91,7.91,0,0,1,0,15.81h0Zm0,0" transform="translate(-42.69 -57.3)"/><path class="cls-2" d="M190.17,77.25L171.72,58.8H130.85v76.45h59.32v-58Zm0,0" transform="translate(-42.69 -57.3)"/><path class="cls-3" d="M143.51,90.26h32.11a1.28,1.28,0,1,0,0-2.56H143.51a1.28,1.28,0,1,0,0,2.56h0Zm0,0" transform="translate(-42.69 -57.3)"/><path class="cls-3" d="M143.51,80h12.84a1.29,1.29,0,1,0,0-2.57H143.51a1.29,1.29,0,1,0,0,2.57h0Zm0,0" transform="translate(-42.69 -57.3)"/><path class="cls-3" d="M175.62,98H143.51a1.29,1.29,0,1,0,0,2.57h32.11a1.29,1.29,0,1,0,0-2.57h0Zm0,0" transform="translate(-42.69 -57.3)"/><path class="cls-3" d="M175.62,108.25H143.51a1.28,1.28,0,1,0,0,2.56h32.11a1.28,1.28,0,1,0,0-2.56h0Zm0,0" transform="translate(-42.69 -57.3)"/><path class="cls-3" d="M175.62,118.52H143.51a1.29,1.29,0,0,0,0,2.57h32.11a1.29,1.29,0,1,0,0-2.57h0Zm0,0" transform="translate(-42.69 -57.3)"/><path class="cls-2" d="M201.31,119.81a15.41,15.41,0,1,1-15.42-15.42,15.41,15.41,0,0,1,15.42,15.42h0Zm0,0" transform="translate(-42.69 -57.3)"/><path class="cls-4" d="M171.1,60.26L171,78l17.64-.16Z" transform="translate(-42.69 -57.3)"/><path class="cls-3" d="M194.34,112.33a1.28,1.28,0,0,0-1.79.32L185.36,123l-5.07-4.16a1.28,1.28,0,1,0-1.62,2l6.15,5a1.27,1.27,0,0,0,.81.29h0.18a1.29,1.29,0,0,0,.88-0.53l8-11.47a1.28,1.28,0,0,0-.32-1.79h0Zm0,0" transform="translate(-42.69 -57.3)"/></svg>