<svg id="Слой_1" data-name="Слой 1" xmlns="http://www.w3.org/2000/svg" width="218.06" height="150.76" viewBox="0 0 218.06 150.76"><defs><style>.cls-1{fill:#e56266;}.cls-2{fill:#fff;}</style></defs><title>3</title><path class="cls-1" d="M121.91,53.9s33.85,0.21,64.32,12.77c0,0,1.91,69.59-18.88,89.56s-39.67,34.8-45.44,35c-5.76-.21-24.71-15-45.5-35S57.47,66.66,57.47,66.66C87.94,54.1,121.91,53.9,121.91,53.9m0-6.84h0c-1.44,0-35.62.49-66.91,13.39l-4,1.7-0.11,4.31a318,318,0,0,0,1.71,38.19c3,28,9.48,46.94,19.26,56.33a373.46,373.46,0,0,0,28.92,25.38c12.8,9.9,17.75,11.35,20.91,11.46h0.47c3.15-.11,8.1-1.56,20.88-11.46A376.79,376.79,0,0,0,171.91,161c9.77-9.39,16.24-28.34,19.23-56.32a317.52,317.52,0,0,0,1.68-38.17L192.7,62.2l-4-1.76c-31.3-12.9-65.36-13.39-66.79-13.39h0Z" transform="translate(-13.03 -47.06)"/><path class="cls-1" d="M201,123.9v41.8a695.48,695.48,0,0,1-79,5,697.52,697.52,0,0,1-79-5V123.9c23,4.53,79,4.74,79,4.74S178,128.43,201,123.9Z" transform="translate(-13.03 -47.06)"/><path class="cls-1" d="M39,149.36S17.76,145,13,136.8a15.74,15.74,0,0,0,6.4-1.51c2.88-1.51,8.07-5.08,14.87-5.35,0,0-10-8-10.17-21.62,0,0,6.55,7.55,31.94,6.52L39,121.64v27.73Z" transform="translate(-13.03 -47.06)"/><path class="cls-1" d="M205,149.36s21.35-4.32,26.09-12.56a15.55,15.55,0,0,1-6.34-1.51c-2.88-1.51-8-5.08-14.84-5.35,0,0,10-8,10.18-21.62,0,0-6.65,7.55-32,6.52l17,6.79v27.73Z" transform="translate(-13.03 -47.06)"/><path class="cls-1" d="M76.08,74.16c0,1.91,1,2.66,2.68,2.66a7.66,7.66,0,0,0,2.79-.48V70h3.12V84.72H81.55V79.09a11.12,11.12,0,0,1-3.17.48c-3.74,0-5.46-2.16-5.46-5.41V70h3.15v4.11Z" transform="translate(-13.03 -47.06)"/><path class="cls-1" d="M87.58,84.72V70H98v2.75H90.71v3.1h7.11v2.75H90.71V82H98v2.75H87.58Z" transform="translate(-13.03 -47.06)"/><path class="cls-1" d="M99.7,77.39a7.46,7.46,0,0,1,7.81-7.59,6.72,6.72,0,0,1,6.14,3.59L111,74.71a4,4,0,0,0-3.45-2.13,4.82,4.82,0,0,0,0,9.64A3.94,3.94,0,0,0,111,80.08l2.68,1.3A6.76,6.76,0,0,1,107.51,85,7.46,7.46,0,0,1,99.7,77.39Z" transform="translate(-13.03 -47.06)"/><path class="cls-1" d="M118.91,84.72V72.79h-4.29V70h11.71v2.75h-4.27V84.72h-3.15Z" transform="translate(-13.03 -47.06)"/><path class="cls-1" d="M138.38,84.72V78.56h-6.93v6.16h-3.12V70h3.12v5.76h6.93V70h3.15V84.72h-3.15Z" transform="translate(-13.03 -47.06)"/><path class="cls-1" d="M154.53,84.72l-0.9-2.49h-6.29l-0.92,2.49h-3.56L148.52,70h3.92l5.65,14.68h-3.56Zm-4-11.55-2.29,6.32h4.58Z" transform="translate(-13.03 -47.06)"/><path class="cls-1" d="M158.82,84.72l3.3-5.59a4.21,4.21,0,0,1-3.21-4.36A4.57,4.57,0,0,1,163.83,70h6.86V84.72h-3.12V79.51h-2.27l-2.9,5.21h-3.59Zm8.76-8v-4H164.3a2,2,0,1,0,0,4h3.28Z" transform="translate(-13.03 -47.06)"/><path class="cls-1" d="M93.68,116.72H75v-24h5.11v19.51H91.49V92.71h5.15v19.51H98.8v8.93H93.68v-4.43Z" transform="translate(-13.03 -47.06)"/><path class="cls-1" d="M101.79,116.72v-24h17v4.5H106.9v5.08h11.63v4.5H106.9v5.44h11.88v4.5h-17Z" transform="translate(-13.03 -47.06)"/><path class="cls-1" d="M139.22,116.72V106.64H127.89v10.08h-5.11v-24h5.11v9.43h11.34V92.71h5.15v24h-5.15Z" transform="translate(-13.03 -47.06)"/><path class="cls-1" d="M165.65,116.72l-1.48-4.07H153.88l-1.51,4.07h-5.83l9.29-24h6.41l9.25,24h-5.83ZM159,97.82l-3.74,10.33h7.49Z" transform="translate(-13.03 -47.06)"/><path class="cls-2" d="M49.89,159.8c-0.08-9.39.08-18.8,0-28.19,5,0.48,7.14.71,12.18,1.1l0,4.69c-2.87-.22-4.3-0.34-7.17-0.59l0.18,23.48C52.95,160.1,52.05,160,49.89,159.8Z" transform="translate(-13.03 -47.06)"/><path class="cls-2" d="M76.32,161.85l-0.89-5.25-5.35-.34-0.83,5.13-5.6-.41q2.9-13.87,5.82-27.73c2.51,0.17,3.76.25,6.27,0.4q3.1,14.25,6.19,28.5Zm-3.66-22.43-2,12.19,4.14,0.27Z" transform="translate(-13.03 -47.06)"/><path class="cls-2" d="M84.17,162.28L84,134.12c3.12,0.15,4.67.22,7.79,0.34,5.63,0.22,8.15,4.46,8.16,9.18s-2.48,8.85-8.1,8.63l-2.33-.09,0,10.34Zm10.29-18.81c0-2.57-1.14-4.26-3.17-4.34l-1.77-.07,0,8.44,1.77,0.07C93.35,147.65,94.47,146,94.46,143.46Z" transform="translate(-13.03 -47.06)"/><path class="cls-2" d="M113.64,163.16l-0.87-5.2-5.36-.08-0.85,5.18-5.61-.13q3-14,6-28c2.51,0,3.77.07,6.28,0.1q3,14.1,6.07,28.2Zm-3.57-22.25L108,153.2l4.15,0.06Z" transform="translate(-13.03 -47.06)"/><path class="cls-2" d="M132.47,163.14c0-4.86,0-7.29,0-12.16L127,151c0,4.86,0,7.29,0,12.16l-5.44,0q0-14.08,0-28.16l5.46,0c0,4.54,0,6.81,0,11.36l5.54-.06V135l5.46-.09q0,14.08-.05,28.16Z" transform="translate(-13.03 -47.06)"/><path class="cls-2" d="M145.29,162.85c0-9.39,0-14.08.06-23.47l-4.37.12v-4.69c5.68-.14,8.52-0.24,14.2-0.48l0,4.69-4.37.18c0,9.39,0,14.08-.08,23.47Z" transform="translate(-13.03 -47.06)"/><path class="cls-2" d="M158.11,162.36l0.12-28.16,5.5-.28-0.07,15.24,5.57-15.56,5.45-.35-0.17,28.16-5.43.35L169.15,146l-5.91,16.13Z" transform="translate(-13.03 -47.06)"/><path class="cls-2" d="M178.2,161.15l4-12c-1.63-.72-3.69-2.72-3.66-7.49,0-5.15,3.34-9,7.92-9.36,3.2-.27,4.18-0.37,7.38-0.67-0.08,9.39.08,18.76,0,28.15-2.15.2-2.85,0.28-5,.47L189,149.94l-1.77.15L184,160.7ZM189,145.25l0.07-8.45-1.77.15c-2,.17-3.16,1.91-3.18,4.48s1.09,4.13,3.12,4Z" transform="translate(-13.03 -47.06)"/></svg>