<svg id="Слой_1" data-name="Слой 1" xmlns="http://www.w3.org/2000/svg" width="165.11" height="133.25" viewBox="0 0 165.11 133.25"><defs><style>.cls-1,.cls-2{fill:#e56266;}.cls-2{stroke:#fff;stroke-miterlimit:10;stroke-width:3px;}</style></defs><title>4</title><path class="cls-1" d="M171.14,126.54c-0.1-.11-0.3-0.21-0.41-0.32l-4.93-4.7-7.71-7.4-12.6-12.34a18.05,18.05,0,0,0-11-4.72h-49a18,18,0,0,0-11,4.72L61.85,114c-0.07-2.43-.65-5.82-5.66-5.82-4.81,0-10.42,1.45-10.42,5.51,0,3.47,4.35,6.87,8.4,7.79l-4.88,4.71c-0.11.11-.37,0.21-0.47,0.32C43.6,131,40,139.27,40,145.27V163.1a15.7,15.7,0,0,0,5,11.17v6.92c0,4,3.24,6.87,7.39,6.87h9.14c4.16,0,7.47-2.82,7.47-6.87v-2.13h82v2.13c0,4,3.22,6.87,7.38,6.87h9.12c4.17,0,7.5-2.82,7.5-6.87v-6.92a15.7,15.7,0,0,0,5-11.17V145.27C180,139.27,176.35,131,171.14,126.54ZM79,107.36a12,12,0,0,1,6.41-2.3h49a12,12,0,0,1,6.41,2.3l16.5,15.7H62.54Zm-33,35.2a7.81,7.81,0,0,1,7.68-8c4.24,0,18.09,8.13,18.09,12.53S58,150.51,53.73,150.51A7.81,7.81,0,0,1,46,142.56Zm20.1,29.5-8.68-.22a16.31,16.31,0,0,1-5.3-2.68,7.24,7.24,0,0,1-1.44-1.52,5.72,5.72,0,0,1-.8-1.6c-1.08-3,1.15-6,1.15-6H65.87l9.87,12H66.15Zm65.1,0H88.67a8.31,8.31,0,0,1-8-8h58.67A8.31,8.31,0,0,1,131.25,172.06Zm1.87-14H86.79c-4.82,0-8.75-6-8.75-13h63.81C141.85,152.06,137.94,158.06,133.12,158.06ZM170,166a5.59,5.59,0,0,1-.8,1.52,7.42,7.42,0,0,1-1.44,1.5,16.42,16.42,0,0,1-5.3,2.81l-8.68.22h-9.61l9.88-12h14.8S171.06,163,170,166Zm-3.8-15.51c-4.24,0-18.09,1-18.09-3.37s13.85-12.53,18.09-12.53A8,8,0,0,1,166.18,150.51Z" transform="translate(-40 -54.81)"/><path class="cls-1" d="M172.91,105.89a12,12,0,0,1-8.52,3.56,11.89,11.89,0,0,1-4.76-1L153.2,115a17.9,17.9,0,0,1-6.26-6.36l6.35-6.4a12,12,0,0,1,14.4-16.38,0.72,0.72,0,0,1,.5.51A0.74,0.74,0,0,1,168,87l-7.56,7.64a12.82,12.82,0,0,0,3,3.71,12.86,12.86,0,0,0,3.73,2.92l7.56-7.64a0.72,0.72,0,0,1,.69-0.19,0.75,0.75,0,0,1,.52.5A12.07,12.07,0,0,1,172.91,105.89Z" transform="translate(-40 -54.81)"/><path class="cls-2" d="M203.46,104.66a4.3,4.3,0,0,0-2-2.6L196.8,99.4c0.12-1.17.18-2.35,0.18-3.54a32.56,32.56,0,0,0-.21-3.54l4.64-2.69A4.29,4.29,0,0,0,203,83.76l-9-15.44a4.31,4.31,0,0,0-3.73-2.14,4.17,4.17,0,0,0-2.15.59l-4.64,2.69A33.26,33.26,0,0,0,177.34,66l0-5.37A4.28,4.28,0,0,0,173,56.31l-17.87.05a4.31,4.31,0,0,0-4.28,4.3l0,5.37a32.84,32.84,0,0,0-6.09,3.56l-4.66-2.67a4.42,4.42,0,0,0-2.15-.57,4.31,4.31,0,0,0-3.72,2.16L125.39,84A4.29,4.29,0,0,0,127,89.88l4.65,2.66c-0.12,1.16-.18,2.35-0.18,3.54a32.88,32.88,0,0,0,.2,3.54L127,102.31a4.28,4.28,0,0,0-2,2.61,4.24,4.24,0,0,0,.44,3.25l9,15.45a4.27,4.27,0,0,0,5.86,1.55l4.65-2.7a32.38,32.38,0,0,0,6.13,3.53v5.36a4.31,4.31,0,0,0,4.3,4.28l17.87-.06a4.28,4.28,0,0,0,4.27-4.3v-5.37a32.26,32.26,0,0,0,6.09-3.56L188.3,125a4.18,4.18,0,0,0,2.15.57,4.3,4.3,0,0,0,3.72-2.16l8.88-15.5A4.28,4.28,0,0,0,203.46,104.66Zm-39.25,15A23.68,23.68,0,1,1,187.9,96,23.68,23.68,0,0,1,164.22,119.65Z" transform="translate(-40 -54.81)"/><path class="cls-1" d="M164.41,76.07a20.14,20.14,0,1,1-20.14,20.14,20.14,20.14,0,0,1,20.14-20.14m0-5.95A26.09,26.09,0,1,0,190.5,96.21a26.12,26.12,0,0,0-26.09-26.09h0Z" transform="translate(-40 -54.81)"/></svg>