<svg id="Слой_1" data-name="Слой 1" xmlns="http://www.w3.org/2000/svg" width="239.54" height="190.28" viewBox="0 0 239.54 190.28"><defs><style>.cls-1{fill:#e56266;}</style></defs><title>5</title><path class="cls-1" d="M73.25,113.52l-0.16-.17-2.65-2.56c2.2-.5,4.57-2.35,4.57-4.23,0-2.21-3.06-3-5.67-3s-3,1.87-3.08,3.19l-6.84-6.6a9.67,9.67,0,0,0-6-2.46H26.75a9.68,9.68,0,0,0-6,2.46l-6.84,6.6c0-1.32-.36-3.19-3.08-3.19s-5.67.78-5.67,3c0,1.89,2.37,3.74,4.57,4.23l-2.66,2.56-0.15.17a14.88,14.88,0,0,0-4.69,10.19v9.7a8.83,8.83,0,0,0,2.43,6.08v3.76a4.05,4.05,0,0,0,4.1,4h5a4.05,4.05,0,0,0,4.1-4v-1H62.33v1a4.05,4.05,0,0,0,4.1,4h5a4.05,4.05,0,0,0,4.11-4V139.5a8.83,8.83,0,0,0,2.43-6.08v-9.7a14.88,14.88,0,0,0-4.69-10.19h0Zm-50-10.43a6.81,6.81,0,0,1,3.48-1.41H53.42a6.81,6.81,0,0,1,3.49,1.41l9,8.7H14.28Zm-18,19.15a4.26,4.26,0,0,1,4.18-4.33c2.31,0,9.84,4.43,9.84,6.82s-7.54,1.83-9.84,1.83a4.25,4.25,0,0,1-4.18-4.32h0ZM17.84,138H11.52a8.9,8.9,0,0,1-2.88-1.4,3.83,3.83,0,0,1-.78-0.79,2.78,2.78,0,0,1-.44-0.8A3.64,3.64,0,0,1,8,131.88H16.1L21.47,138H17.84Zm33.83,0H28.5a4.38,4.38,0,0,1-4.38-4.38H56A4.38,4.38,0,0,1,51.67,138h0Zm1-7.36H27.48c-2.62,0-4.76-3.24-4.76-7.23H57.44c0,4-2.13,7.23-4.75,7.23h0Zm20.06,4.37a3,3,0,0,1-.44.8,4,4,0,0,1-.78.8,9.06,9.06,0,0,1-2.88,1.4h-10l5.37-6.17h8.06a3.65,3.65,0,0,1,.63,3.18h0Zm-2.07-8.49c-2.31,0-9.84.55-9.84-1.83s7.54-6.82,9.84-6.82a4.33,4.33,0,0,1,0,8.65h0Zm0,0" transform="translate(-2.23 -27.28)"/><path class="cls-1" d="M191.36,67.43l-1.47.61a1.54,1.54,0,0,1-1.61-.28,1.16,1.16,0,0,1-.26-0.3A81.13,81.13,0,0,0,44.84,84.92a2.38,2.38,0,0,1-2.2,1.55l-0.29,0a2.35,2.35,0,0,1-1.88-3.15A85.78,85.78,0,0,1,192.06,65.13a1,1,0,0,1,.2.43A1.55,1.55,0,0,1,191.36,67.43Z" transform="translate(-2.23 -27.28)"/><path class="cls-1" d="M197.57,84.62L179.13,69.29a0.78,0.78,0,0,1,.49-1.38L190,67.73a0.84,0.84,0,0,0,.62-0.3l6.7-7.9a0.78,0.78,0,0,1,1.38.5l0.18,24A0.78,0.78,0,0,1,197.57,84.62Z" transform="translate(-2.23 -27.28)"/><path class="cls-1" d="M200.08,164.79A85.79,85.79,0,0,1,49.77,179.72a1.53,1.53,0,0,1-.25-1,1.56,1.56,0,0,1,1-1.31l1.46-.6a1.58,1.58,0,0,1,1.73.37l0.15,0.2A81.11,81.11,0,0,0,195.77,163,2.34,2.34,0,1,1,200.08,164.79Z" transform="translate(-2.23 -27.28)"/><path class="cls-1" d="M61.52,177.05l-7.84.13-2.51,0a0.89,0.89,0,0,0-.63.3l-1,1.19-5.68,6.7a0.78,0.78,0,0,1-1.38-.49l-0.13-18.34,0-5.64a0.78,0.78,0,0,1,1.28-.61l9.15,7.6,9.3,7.73A0.78,0.78,0,0,1,61.52,177.05Z" transform="translate(-2.23 -27.28)"/><path class="cls-1" d="M136.77,129.42a13.07,13.07,0,0,0-1.13-2.75,9.34,9.34,0,0,0-1.91-2.28,22.48,22.48,0,0,0-2.23-1.8,21.72,21.72,0,0,0-2.71-1.53q-1.72-.84-2.73-1.26t-2.91-1.13q-1.69-.65-2.52-1t-2.17-1a12.51,12.51,0,0,1-2-1.11,15.55,15.55,0,0,1-1.42-1.18,4.06,4.06,0,0,1-1.06-1.49,4.76,4.76,0,0,1-.31-1.72,4.71,4.71,0,0,1,2.16-4,9.34,9.34,0,0,1,5.57-1.54,12,12,0,0,1,3.07.41,15.9,15.9,0,0,1,2.67.93,18.17,18.17,0,0,1,2.1,1.15c0.66,0.42,1.13.74,1.4,1s0.45,0.36.52,0.43a1.15,1.15,0,0,0,1,.25,1,1,0,0,0,.83-0.57l2.91-5.24a1,1,0,0,0-.18-1.37l-0.54-.5q-0.32-.29-1.4-1a17.68,17.68,0,0,0-2.28-1.35,23.3,23.3,0,0,0-3.13-1.2,19.91,19.91,0,0,0-4-.83V91.38a1.11,1.11,0,0,0-1.15-1.15h-4.85a1.17,1.17,0,0,0-1.15,1.15v6.47a16.45,16.45,0,0,0-9.16,4.81,12.29,12.29,0,0,0-3.52,8.69,12.54,12.54,0,0,0,.31,2.8,14.44,14.44,0,0,0,.76,2.39,8.79,8.79,0,0,0,1.27,2.08,22.51,22.51,0,0,0,1.56,1.76,12.6,12.6,0,0,0,1.92,1.53q1.18,0.79,2,1.28t2.25,1.11q1.4,0.63,2.21,1l2.21,0.9q1.94,0.76,2.87,1.17t2.37,1.15a9.88,9.88,0,0,1,2.1,1.35,6.7,6.7,0,0,1,1.2,1.51,3.64,3.64,0,0,1,.54,1.9,5,5,0,0,1-2.21,4.38,8.69,8.69,0,0,1-5.12,1.55,12.4,12.4,0,0,1-2.66-.29,18.75,18.75,0,0,1-8.73-4.49l-0.07-.07a0.89,0.89,0,0,0-.86-0.32,1.12,1.12,0,0,0-.83.43l-3.7,4.85a1.09,1.09,0,0,0,.07,1.47c0.12,0.14.33,0.36,0.63,0.65a21,21,0,0,0,1.67,1.35,22,22,0,0,0,6.3,3.32,22.58,22.58,0,0,0,4.58,1.11v6.29a1.16,1.16,0,0,0,1.15,1.15h4.85a1.1,1.1,0,0,0,1.15-1.15v-6.29a15.42,15.42,0,0,0,9.29-4.9,13.67,13.67,0,0,0,3.57-9.46,11.86,11.86,0,0,0-.47-3.38h0Zm0,0" transform="translate(-2.23 -27.28)"/><path class="cls-1" d="M240,110.39h-6a1.77,1.77,0,0,0-1.22.49l-1.28,1.22a63.68,63.68,0,0,0-9.42-15A11.78,11.78,0,0,0,213,92.75H189a11.78,11.78,0,0,0-9.15,4.34,62.23,62.23,0,0,0-9.44,15l-1.26-1.21a1.77,1.77,0,0,0-1.22-.49h-6a1.77,1.77,0,0,0-1.77,1.77v4.09a1.77,1.77,0,0,0,1.66,1.76L168,118.4a39.22,39.22,0,0,0-1.66,12.47c0,5,1,8.21,2.71,10.31v9.53a1.48,1.48,0,0,0,1.48,1.48h6.81a1.48,1.48,0,0,0,1.48-1.48V144.8h44.34v5.92a1.48,1.48,0,0,0,1.48,1.48h6.81a1.48,1.48,0,0,0,1.48-1.48v-9.53c1.72-2.11,2.71-5.36,2.71-10.31A39.2,39.2,0,0,0,234,118.4l6.15-.39a1.77,1.77,0,0,0,1.66-1.76v-4.09a1.77,1.77,0,0,0-1.77-1.77h0Zm-55.11-9.16a5.28,5.28,0,0,1,4.1-1.94h24a5.28,5.28,0,0,1,4.1,1.94,61.64,61.64,0,0,1,7,10.39H177.84a62,62,0,0,1,7-10.39h0Zm-5,36.33c-3.39,0-6.14-1.11-6.14-3.79s1-4.86,4.38-4.86,7.89,2.18,7.89,4.86-2.75,3.79-6.14,3.79h0ZM207.4,137H194.54a3.52,3.52,0,0,1-3.52-3.52,1,1,0,0,1,1-1h17.93a1,1,0,0,1,1,1A3.52,3.52,0,0,1,207.4,137h0Zm14.69,0.56c-3.39,0-6.14-1.11-6.14-3.79s4.5-4.86,7.89-4.86,4.39,2.18,4.39,4.86-2.75,3.79-6.14,3.79h0Zm0,0" transform="translate(-2.23 -27.28)"/></svg>